<?xml version="1.0" encoding="UTF-8"?>
<svg width="500" height="450" viewBox="0 0 381 357" xmlns="http://www.w3.org/2000/svg">
 <g fill="#fff" fill-rule="evenodd" stroke="#000" stroke-width="5">
  <path d="m82.045 192.63l5.594-1.5757-1.4917 1.7235q-1.4385 1.7234-1.2787 2.2158 0.10657 0.49243-1.0655 0.98486-1.2253 0.49237-6.0201 5.4165t-8.2578 9.6021q-3.4629 4.6779-6.6595 11.818-3.1966 7.14-4.262 12.803-1.0655 5.6628-0.79916 12.803 0.26639 7.14 2.9302 13.295 2.6638 6.1552 7.1923 12.064 4.5284 5.909 8.6307 9.4544 4.1555 3.5946 7.4586 5.712 3.3564 2.0681 3.5162 2.5606 0.10657 0.49243 11.561 5.8105 11.454 5.2688 15.983 6.5983 4.5284 1.3788 4.5284 2.1174 0 0.73865 8.7905 2.6098 8.7905 1.822 9.3233 1.5757 0.53274-0.24622 1.3319-1.231 0.79913-0.98486 2.3974-1.3295 1.5983-0.39392 2.131 1.0833 0.53278 1.4772 14.118 4.0378 13.585 2.6098 14.544 2.9545 0.9057 0.39392 1.0655-0.09845 0.10657-0.49243 1.5983-0.24622 1.4384 0.24622 1.5983 1.231 0.10657 0.9848 1.5983 0.49243 1.4385-0.49243 1.5983-0.59094 0.10657-0.1477 0.9057-0.1477h0.79913l0.1066 0.1477 0.1599 0.0985-0.1599 0.9848q-0.10657 0.98486-0.63934 1.0833-0.53272 0.14777 2.3975 0.7879 2.9302 0.59088 2.9302 1.0833 0 0.49237 1.1721 0.73859 1.2253 0.24622 1.5983 1.1326 0.42621 0.8371 3.5162 1.6742 3.0367 0.88635 4.4752 1.7727 1.4917 0.8371 2.2908 1.0833l0.7991 0.2462h0.53278l0.1066-0.1478 0.1598-0.0985 0.2664-0.4924 0.2664-0.4924 0.1598-0.0985 0.1066-0.1477 0.1066-0.1478 0.1599-0.0985 0.1598 0.0985 0.1066 0.1478h0.53278l0.1065-0.1478 0.1599-0.0985 0.1598-0.0985 0.1066-0.1477v-0.24621h0.26642l0.1598 0.0985 0.1066 0.1477h0.53278l0.6393 0.1477q0.69263 0.098511 0.53278 1.4772-0.10657 1.3295 0.85242 1.4772 0.9057 0.098511 1.8114 0.98486 0.95892 0.8371 12.147 4.284t19.446 5.0718q8.2578 1.5757 8.2578 2.0682 0 0.49237 3.1965 0.49237 3.1966 0 3.7293-0.59088 0.53278-0.64014 2.5572-0.29541 1.9712 0.39392 3.7293 0.9848 1.7048 0.64014 4.1022 0.64014t2.9302 0h2.131l-0.1066 0.1477-0.1598 0.0985-0.1599 0.0985-0.1066 0.1478-0.1066 0.1477-0.1598 0.0985-0.1599 0.0985-0.1066 0.1477 0.7992 0.1478 0.7991 0.0985v1.231l-0.7991 0.2462-0.7992 0.2462-0.7991 0.2462q-0.79913 0.24622-16.782 3.9393-15.983 3.693-28.503 5.1704-12.52 1.4772-30.9 2.2158-18.38 0.73865-40.756-0.73859t-39.957-5.1704q-17.581-3.6931-27.97-7.14t-19.446-7.14q-9.0569-3.6931-15.716-7.3862-6.6595-3.6931-12.52-7.3862-5.8603-3.6931-8.7905-6.1552t-7.4586-6.8938q-4.5284-4.4318-6.6595-7.14-2.131-2.7082-4.5284-6.4999-2.3974-3.8408-2.9302-3.8408-0.53274 0-1.5983-3.9393-1.0655-3.9393-1.5983-3.9393-0.53278 0-1.4917-4.1856-0.9057-4.1855-0.9057-12.556 0-8.371 0.9057-12.557 0.95895-4.1855 1.4917-4.1855 0.53274 0 1.1721-2.4621 0.6926-2.462 1.3852-2.7082 0.63931-0.24622 0.74588-1.231 0.15982-0.98486 2.0245-3.6931 1.8647-2.7083 3.7293-5.4166 1.8647-2.7082 4.6883-5.0718 2.7704-2.3144 3.3031-3.6439 0.53278-1.3787 1.5983-1.3787t1.5983-0.88635q0.53274-0.8371 2.3974-2.6591 1.8646-1.8712 3.1966-2.1174 1.3319-0.24622 1.5983-1.231 0.26639-0.9848 2.6638-1.8712 2.3974-0.8371 4.262-2.6591 1.8646-1.8712 4.2621-2.6098 2.3974-0.73859 2.504-1.231 0.15982-0.49243 1.9179-1.0833 1.7048-0.64014 3.3031-1.6249 1.5983-0.98486 4.1555-2.1174 2.504-1.0833 3.9424-1.5758 1.4917-0.49243 1.4917-0.98486 0-0.49237 3.1965-1.3787 3.1966-0.8371 4.7948-1.5758 1.5983-0.73859 4.2621-1.5758 2.6638-0.88629 2.6638-1.3787 0-0.49243 1.5983-0.88635 1.5983-0.34467 7.1922-1.9697z"/>
  <path d="m219.76 134.68l0.2664-0.7386 0.9057 1.8712q0.95892 1.822 1.4917 1.9697 0.53278 0.09848 1.1721 2.5606 0.69257 2.4621 1.5983 2.856 0.95898 0.34473 1.4918 0.098511 0.53272-0.24622 1.1721 0.88635 0.69257 1.0833 0.85242 0.59088 0.10651-0.49243 1.2786-0.49243 1.2253 0 1.3851 0.73865 0.10657 0.73859 2.504 1.1326 2.3974 0.34467 4.9546 1.1818 2.504 0.88635 2.6638 0.98486l0.1066 0.1477 0.1065 0.1477 0.1599 0.0985 0.2664 0.4924 0.2664 0.4924 0.1598-0.4924 0.1066-0.4924h1.0655l-0.1065 16.742q-0.15985 16.742-0.31964 17.727l-0.1066 0.9849-0.2664 0.0985-0.2664 0.1478h-1.5983q-1.5983 0-3.1965-0.24622-1.5983-0.24622-18.38-2.4621t-39.424-2.3636l-22.642-0.0985v-0.24621l-0.5327-0.2462q-0.53274-0.24622-0.63931-0.39392-0.15982-0.098511-0.6926-12.163-0.53274-12.064-0.37292-14.034 0.10657-1.9697 0.9057-2.0682 0.79913-0.1477 1.4384-0.9848 0.6926-0.88635 0-2.1174l-0.6393-1.2311h1.7048q1.7581 0 2.4507-0.59088 0.63931-0.64014 2.504-0.39392 1.8646 0.24622 3.0367 0.59088 1.2253 0.39392 1.7581 0.39392 0.53274 0 0.90567-0.39392 0.42621-0.34467 0.85242 0 0.37292 0.39392 0.74588-0.19696 0.42618-0.64014 1.0655-0.9848 0.6926-0.39392 1.0655 0.19696 0.42621 0.64014 1.5983 0.49243 1.2253-0.098511 1.3851-0.59094 0.10657-0.49237 3.5695-0.73859t3.8891 0.73859q0.37292 0.98486 0.74591 0.39392 0.42615-0.64014 1.7581-0.78784 1.3319-0.09845 1.8647 0.49243 0.53272 0.64014 1.4917 0.49243 0.9057-0.098511 1.1721-0.34473 0.26642-0.24622 0.63934 0.1477 0.42621 0.34473 1.7581 0.34473t1.8647-0.24622q0.53278-0.24622 1.0655-0.098511 0.53278 0.098511 0.53278-0.39392 0-0.49237 2.3974-0.39392 2.3974 0.1477 5.0612 0.1477t3.463 0.24622q0.79913 0.24622 1.3318 0.098511 0.53278-0.098511 0.79919 0.49243 0.26636 0.64014 0.90564 0 0.69263-0.59094 1.5983-0.83716 0.95892-0.24616 1.2253 0.34473 0.26642 0.64014 1.0656 0.39392 0.79913-0.24622 2.6638-0.49243l1.8647-0.2462-0.1066-0.1477q-0.15979-0.09845-0.31964-0.19696-0.10657-0.1477-0.9057-1.4772-0.79913-1.3788 0.53278-1.7727 1.3319-0.3447 0.53278-0.49243-0.79913-0.09848-0.37299-0.8371 0.37299-0.73862-0.15979-1.231l-0.5328-0.4924-0.1598-0.0985-0.1066-0.1477 0.4262-0.3447q0.37292-0.39392 0.74585-0.78784 0.42621-0.3447 0.69257-0.4924l0.2664-0.0985h0.10657q0.15979 0 0.42615-0.73862zm-38.092 9.6021q0-0.49237 0.15979-0.39392 0.10657 0.1477 0.21314 0.29547 0.15979 0.09845 0.15979 0.59088t-0.15979 0.39392q-0.10657-0.1477-0.21314-0.29541-0.15979-0.098511-0.15979-0.59094zm15.61 0.3939q-0.15985 0.098511 0.74585 0 0.95898-0.1477 0.15985-0.1477t-0.9057 0.1477z"/>
  <path d="m182.47 220.6q2.6638-0.24622 4.7948 0.73865 2.131 0.9848 4.3686 3.7916 2.2908 2.856 4.6882 9.5036t2.6638 14.034q0.26636 7.3862-1.5983 14.526-1.8647 7.14-3.463 9.602-1.5983 2.4621-4.1022 4.8256-2.5572 2.3144-6.5529 2.5606-3.9957 0.24616-7.6185-3.053-3.5695-3.3484-5.9669-10.488-2.3974-7.14-2.6638-14.526-0.26639-7.3862 0.79913-12.064 1.0655-4.6779 3.5695-9.7005 2.5572-5.0719 5.4874-7.2877 2.9302-2.2159 5.594-2.4621z"/>
  <path d="m355.62 244.63l-3.1966 0.0985-2.3974-0.0985q-2.3974-0.1477-6.2333-4.9241-3.8891-4.8256-9.4831-12.704l-5.5939-7.8786-0.1599-0.0985-0.1066-0.1477-0.1065-0.1477-0.1599-0.0985-0.1598-0.0985-0.1066-0.1478-0.1066-0.1477-0.1599-0.0985-0.2664-0.4924-0.2664-0.4924h-0.26642v-0.9848h7.1923q7.1922 0 8.5241-10.094t9.5897-9.5036q8.2578 0.64014 12.413 2.2651 4.1022 1.5758 7.4586 4.9241 3.3031 3.2992 3.8359 3.4469 0.53272 0.098511 2.7703 6.0074 2.2908 5.909 2.0245 16.988-0.26636 11.079-1.4917 12.458-1.1721 1.3295-10.762 1.5758-9.5897 0.24622-12.786 0.39392z"/>
  <path d="m302.07 205.24l1.3319-0.3939 6.1267 3.053q6.1267 3.1022 11.028 6.4014 4.9546 3.3484 5.6472 3.5947 0.63928 0.24616 0.63928-0.24622v-0.49243h0.26642l0.2664 0.4924 0.2664 0.4924 0.1599 0.0985 0.1066 0.1477 0.1066 0.1478 0.1598 0.0985 0.1599 0.0985 0.1065 0.1477 0.1066 0.1477 0.1599 0.0985 5.5939 7.8786q5.594 7.8787 9.4831 12.704 3.8359 4.7764 6.2333 4.9241l2.3974 0.0985v0.24622l-0.5327 0.1477-0.5328 0.0985 0.1066 0.4924 0.1598 0.4924 0.2664 0.4924 0.2664 0.4924 1.5983 3.9393q1.5983 3.9393 2.2909 9.8483 0.63928 5.909 5.7005 6.0074l5.0612 0.1477 1.0655 0.1478 1.0655 0.0985-0.1065-0.4924-0.1599-0.4924-0.1598-0.0985-0.1066-0.1477-0.1066-0.1477-0.1599-0.0985-0.1598-0.0985q-0.10657-0.1477-0.21314-0.29541-0.15979-0.098511-0.69257-2.0681l-0.5328-1.9697v-3.4468l0.2664 0.7386 0.2664 0.7386 0.2664 0.4924 0.2664 0.4924 0.1598 0.0985 0.1066 0.1477 0.1066 0.1477 0.1598 0.0985 1.3319 2.4621q1.3319 2.462 2.0245 2.7082 0.63934 0.24622 0.9057 0.8371 0.26636 0.64014 1.8647 0.88635l1.5983 0.2462-0.7991 0.2462-0.7991 0.2462h-1.0656l-0.1066-0.1478-0.1598-0.0985-0.1599 0.0985-0.1066 0.1478-0.5327 0.2462-0.5328 0.2462 0.1066 0.1477 0.1598 0.0985 0.1599 0.0985 0.1066 0.1477 0.1066 0.1477 0.1598 0.0985 0.1599 0.0985 0.1065 0.1478 0.1066 0.1477 0.1599 0.0985 0.1598 0.0985 0.1066 0.1477 0.1066 0.1478 0.1598 0.0985 0.1599 0.0985 0.1066 0.1477h-1.0656l-0.1065-0.1477-0.1599-0.0985-0.1598-0.0985-0.1066-0.1478-0.1066-0.1477-0.1599-0.0985-0.1598-0.0985-0.1066-0.1477-0.7991-0.2462q-0.79913-0.24622-7.4586-0.39392l-6.6595-0.0985-0.9589 6.6476q-0.9057 6.6476-2.504 10.094-1.5983 3.4469-1.7581 3.4469h-0.10657l-0.1066-0.2462-0.1598-0.2462-0.1599-0.0985-0.1066-0.1477-0.5327-0.1478-0.5328-0.0985-0.1066 0.7386-0.1599 0.7386-0.2664 0.4924-0.2664 0.4924-0.1599-0.0985-0.1066-0.1478-0.5327-0.2462q-0.53278-0.24616-0.95898-0.59088-0.37292-0.39392-2.6638 1.1818-2.2376 1.6249-4.1023 1.4772-1.8646-0.098511-2.8236 1.3787-0.9057 1.4773-1.5983 1.0833-0.63928-0.34467-0.9057 0-0.26636 0.39398-0.79913 0.49243-0.53272 0.1477-0.63928 0.78784-0.15985 0.59094-0.53278 0.98486-0.42621 0.34467-2.8236 0.8371t-1.8647 0.73865q0.53278 0.24616-2.3974 0.88629-2.9302 0.59094-2.9302 1.0833 0 0.49243-3.1965 0.98486-3.1965 0.49237-3.1965 0.9848t-1.0656 0.59094q-1.0655 0.1477-4.262 1.1325-3.1966 0.98486-3.9957 0.8371-0.79913-0.09845-0.9057-0.59088-0.15979-0.49243-0.31964 0-0.10651 0.49243-0.63928 0.59088-0.53278 0.14777-2.3974 0.14777-1.8647 0-2.9302 0.49237-1.0656 0.49243-0.79913 1.1326 0.26636 0.59088-2.131 0.68939-2.3974 0.1477-2.9302-0.49243-0.53278-0.59088-1.4917 0.1477-0.9057 0.73865-3.7293 0.83716-2.7704 0.1477-3.1966 0.49237-0.37292 0.39392-5.8603 0.39392h-5.4341l0.1065-1.231q0.15985-1.231 0.15985-2.7082t-0.69257-1.7234q-0.63934-0.24622-0.53278-1.9697 0.15985-1.7234-0.53278-2.6098-0.63928-0.8371-1.7048-1.0833-1.0655-0.24622-1.8646-0.49243-0.79913-0.24616-1.8647 0-1.0655 0.24622-3.4629-0.49237-2.3974-0.73865-6.766-2.3636-4.4219-1.5757-5.1144-1.822-0.63934-0.24622-0.63934-0.73859 0-0.49243-0.79913-0.59094-0.79913-0.1477-1.2253-1.2803-0.37292-1.0833 0-1.3295 0.42621-0.24622 0.42621-0.98486 0-0.73859-0.53278-0.73859t-0.79913-1.0834q-0.26636-1.1325-3.7293-1.6249l-3.4629-0.4924 0.1065-0.1477 0.1599-0.0985v-0.49244l-0.1599-0.0985-0.1065-0.1477-0.1066-0.1477-0.1599-0.0985-0.1598-0.0985-0.1066-0.1478 0.5328-0.2462 0.5327-0.2462 0.5328-0.2462 0.5328-0.2462 0.5327-0.2462 0.5328-0.2462v-0.24621l1.3319-0.0985q1.3319-0.14777 3.1965-0.64014 1.8647-0.49243 5.3276-3.6931 3.463-3.2007 5.7006-8.765 2.2908-5.5151 2.9834-11.178l0.6393-5.6628h0.26636l0.1599 0.0985 0.1065 0.1477 0.1066 0.1477 0.1599 0.0985 0.6926 0.5909q0.63934 0.64014 1.9712 0.64014t3.0367 0.1477q1.7581 0.098511 2.131-0.29541 0.42621-0.34473 1.7581 0.1477 1.3318 0.49243 2.2908 0.64014 0.9057 0.098511 1.1721 0.59088l0.2664 0.4924 0.1598-0.4924q0.10657-0.49237 0.63934-0.49237 0.53272 0 0.95892-1.9697l0.3729-1.9697 0.2664-1.231 0.2664-1.231h0.26636l0.4262 6.4014q0.37292 6.4014 2.6638 12.212 2.2376 5.7612 5.4341 8.7157t7.1922 2.9545 7.0857-2.3144q3.0367-2.3636 5.1678-7.0415 2.131-4.6779 2.9302-10.833 0.79913-6.1552-0.10657-11.966-0.95898-5.7612-0.95898-5.9089v-0.098511h0.26642l0.1598-1.7235 0.1066-1.7235 0.5328-0.0985q0.53272-0.14777 1.5983-0.39392 1.0655-0.24622 1.7048-1.0834 0.69257-0.88629 0.15979-5.5643-0.53272-4.6779-1.7581-5.5643-1.1721-0.8371-0.74591-1.1818 0.37292-0.39392-0.31964-0.64014-0.63928-0.24622-0.63928-0.98486 0-0.73859-1.0656-1.3295-1.0655-0.64014-1.1721-1.7727-0.15985-1.0833-0.95898-2.0681-0.79913-0.98486-2.5572-1.5758-1.7048-0.64014-1.9712-1.2803-0.26636-0.59088-0.79913-0.59088-0.53272 0-0.79913-0.98486-0.26636-0.9848-0.79913-1.0833l-0.5328-0.1477 0.1066-0.1477q0.15985-0.098511 0-1.6742-0.10657-1.6249 1.2253-1.9697z"/>
  <path d="m243.63 139.35l0.1065 9.3559h-1.0655l-0.1066 0.4924-0.1598 0.4924-0.2664-0.4924-0.2664-0.4924-0.1599-0.0985-0.1065-0.1477-0.1066-0.1477q-0.15985-0.098511-2.6638-0.98486-2.5572-0.8371-4.9546-1.1818-2.3974-0.39398-2.504-1.1326-0.15979-0.73865-1.3851-0.73865-1.1721 0-1.2786 0.49243-0.15985 0.49243-0.85242-0.59088-0.63934-1.1326-1.1721-0.88635-0.53278 0.24622-1.4918-0.098511-0.9057-0.39392-1.5983-2.856-0.63928-2.4621-1.1721-2.5606-0.53278-0.1477-1.4917-1.9697l-0.9057-1.8712-0.2664 0.7386q-0.26636 0.73862-0.42615 0.73862h-0.10657v-0.73862q0-0.73862-0.53278-0.73862t-0.79913-1.231q-0.26636-1.231-1.0656-1.231-0.79913 0-0.37292-1.231 0.37292-1.231-0.53272-1.6249-0.95898-0.3447-1.5983-2.1667-0.69257-1.8712-1.5983-1.9696-0.95892-0.14774-1.3851-0.78784l-0.3729-0.5909-0.1599 0.0985-0.1066 0.1477-0.1066 0.1477-0.1598 0.0985-0.1599-0.0985-0.1065-0.1477-0.1066-0.1477-0.1599-0.0985-0.1598-0.0985-0.1066-0.1477v-0.49239l0.1066-0.1477 0.1598-0.0985 0.1599-0.0985 0.1066-0.1477 0.1065-0.1477 0.1599-0.0985 0.1598-0.0985 0.1066-0.1477 0.1066-0.1477 0.1599-0.0985 0.2664-0.7386q0.26636-0.73862 2.7703-1.3295 2.5572-0.64014 2.6638-38.408 0.15979-37.817 1.4917-39.787l1.3319-1.9697 0.1599-0.7386 0.1065-0.7386-1.0655-0.0985-1.0655-0.1477-1.5983-0.2462q-1.5983-0.24618-2.9302-0.4924-1.3318-0.24622-21.31-0.39395l-19.978-0.0985-0.1066-1.231q-0.15982-1.231 0.10657-3.2007 0.26636-1.9697 0.63931-5.4166 0.42621-3.4469-0.10657-3.4469-0.53274 0-1.0655-1.0833-0.53274-1.1325-1.1721-2.7575-0.6926-1.5757-1.3852-1.3295-0.63931 0.24622-1.8114-3.4469-1.2253-3.6931-3.5162-5.7612-2.2376-2.1174-4.9014-2.3636-2.6638-0.24622-4.5284 0.73862-1.8646 0.98483-3.5695 3.2992l-1.7581 2.3636-0.2664 0.7386-0.2664 0.7386-0.1599 0.0985-0.1065 0.1477-0.1066 0.1477-0.1598 0.0985-0.2664-0.4924-0.2664-0.4924v-1.9696l-0.1598-0.0985-0.1066-0.1477-0.1066-0.1477-0.1598-0.0985-0.1598-0.0985-0.1065-0.1477 0.1065-0.1477q0.15982-0.09848 0.31964-0.19696l0.1066-0.1477-0.5327-0.1477-0.5328-0.0985-0.1066 0.4924-0.1598 0.4924-0.1598-0.0985-0.1065-0.1477-0.1066-0.1477-0.1598-0.0985-0.1598 0.0985-0.1066 0.1477-0.7991 0.1477-0.7991 0.0985 0.1066-0.4924 0.1598-0.4924 0.2664-0.4924 0.2664-0.4924 2.504-3.3484q2.5572-3.2992 5.7538-4.5302t34.629-0.4924q31.433 0.73862 34.523 2.856 3.0367 2.0682 4.3686 3.7916t2.3974 5.1703q1.0656 3.4469 1.2253 54.904 0.10657 51.457 3.1966 52.442 3.0367 0.98483 6.4996 4.1855 3.463 3.2007 3.9957 4.6779 0.53278 1.4773 0.69263 10.833z"/>
  <path d="m241.07 184.41h1.5983l0.2664-0.1478 0.2664-0.0985v0.49237q0 0.49243 8.0979 2.2159 8.1512 1.7234 20.138 5.4166 11.987 3.6931 20.671 7.2385 8.6307 3.5946 8.8971 3.8408 0.26636 0.24622 0.79913 0.49243l0.5328 0.2462 0.5327 0.2462 0.5328 0.2462v0.24615l-1.3319 0.3939q-1.3319 0.34473-1.2253 1.9697 0.15985 1.5758 0 1.6742l-0.1066 0.1477 0.5328 0.1477q0.53278 0.098511 0.79913 1.0833 0.26642 0.98486 0.79913 0.98486 0.53278 0 0.79913 0.59088 0.26642 0.64014 1.9712 1.2803 1.7581 0.59088 2.5572 1.5758 0.79913 0.9848 0.95898 2.0681 0.10657 1.1326 1.1721 1.7727 1.0656 0.59088 1.1721 1.3295 0.15979 0.73865 0.31964 0.24622 0.10651-0.49237 0.63928-0.49237 0.53278 0 0 1.0833-0.53278 1.1325 0.95898 2.462 1.4384 1.3788 1.8113 2.3636 0.42621 0.98486 0 1.231-0.37292 0.24622-0.37292 3.6931t-1.4384 4.0378q-1.4918 0.64014-2.0245 0.7879l-0.5328 0.0985-0.1066 1.7235-0.1598 1.7235h-0.26642l-0.1066-0.4924-0.1598-0.4924-0.2664-0.7386-0.2664-0.7386-0.2664-0.4924q-0.26642-0.49243-1.0656-2.7082-0.79913-2.2159-2.0245-2.9545-1.1721-0.73859-1.4384-0.34467-0.26642 0.34467-0.9057-0.78784-0.69257-1.0833-0.31964-0.68939 0.42621 0.34467 0.53278-0.29547 0.15979-0.59088-2.131-2.1666-2.2376-1.6249-4.9014-1.8712-2.6638-0.24622-5.8603 1.3787-3.1966 1.5758-4.1555 2.8068-0.9057 1.2311-3.0367 5.909t-2.8236 8.6172l-0.6393 3.9393h-0.26636l-0.2664 1.231-0.2664 1.231-0.3729 1.9697q-0.42621 1.9697-0.95892 1.9697-0.53278 0-0.63934 0.49237l-0.1598 0.4924-0.2664-0.4924q-0.26636-0.49237-1.1721-0.59088-0.95898-0.1477-2.2908-0.64014-1.3319-0.49243-1.7581-0.1477-0.37292 0.39392-2.131 0.29541-1.7048-0.1477-3.0367-0.1477-1.3318 0-1.9712-0.64014l-0.6926-0.5909-0.1599-0.0985-0.1066-0.1477-0.1065-0.1477-0.1599-0.0985h-0.26636l-0.1066-3.4469q-0.15985-3.4469-0.69257-6.1552-0.53278-2.7083-2.2909-7.14-1.7048-4.4317-2.7703-4.3332-1.0656 0.14777-1.7048-0.9848-0.69257-1.0833-2.6638-2.5606-2.0245-1.4772-1.9179-2.7083 0.15985-1.231-1.0655-1.8219-1.1721-0.64014-5.1678-0.88635-3.9957-0.24622-5.8604 0.49243-1.8646 0.73859-5.0612 3.4469-3.1966 2.7082-4.1555 5.318-0.9057 2.5606-1.8114 4.9241-0.95898 2.3143-1.9179 4.6287-0.9057 2.3635-1.0656 9.7498l-0.1066 7.3862-0.5327-0.0985-0.5328-0.1477h-1.0655l-0.5328 0.2462-0.5328 0.2462-0.5327 0.1477-0.5328 0.0985-0.1066-0.4924-0.1599-0.4924-0.1598 0.0985-0.1066 0.1477-0.1066 0.1477-0.1598 0.0985-0.1599-0.4924q-0.10657-0.49243-0.9057-0.39392-0.79913 0.1477-1.0655-0.19696-0.26636-0.39392-0.79913-0.49243-0.53278-0.1477-0.26642-1.7727l0.2664-1.5757-0.7991-0.0985-0.7991-0.1477-0.7991-0.1477q-0.79913-0.098511-0.79913 0.39392 0 0.49237-0.79919 0.49237-0.79913 0-0.90564 0.49243-0.15985 0.49243-1.7581 0.49243h-1.5983l-0.2664 0.4924-0.2664 0.4924-0.2664-0.4924-0.2664-0.4924h-0.26636l-0.1066-2.9545q-0.15979-2.9545-2.0245-11.572-1.8646-8.6172-3.1965-11.572-1.3319-2.9545-4.6883-6.7953-3.3031-3.7916-6.4996-5.2689-3.1965-1.4772-6.9258-1.7234-3.7293-0.24616-6.9259 0.73865-3.1965 0.9848-4.5284 2.3143-1.3319 1.3788-1.8646 1.3788-0.53274 0-2.5572 2.462-1.9712 2.4621-4.3686 7.6324-2.3974 5.1704-3.8358 12.31l-1.4917 7.14h-0.26636l-0.2664 0.9849-0.2664 0.9848-0.1598 0.0985-0.1066 0.1477-0.7991 0.1477q-0.79913 0.098511-0.79913 0.59088v0.49243l-0.7991-0.0985q-0.79913-0.14777-2.2909-0.98486-1.4384-0.88635-3.1965-1.3787-1.7048-0.49243-1.7048-0.98486 0-0.49237-1.3319-0.49237t-1.4384-0.49243q-0.15982-0.49243-0.85239-0.73865-0.63934-0.24622-1.2787-3.4469-0.69257-3.2007-0.95895-5.6627-0.26639-2.4621-0.79913-4.1856-0.53274-1.7234-1.2253-4.6779-0.63931-2.9545-1.1721-2.9545-0.53278 0-0.10657-0.73865 0.37292-0.73859 0.10657-1.7234-0.26639-0.9848-0.53278-1.4772-0.26639-0.49243 0.10657-2.2159 0.42621-1.7234-0.10657-1.8219-0.53274-0.1477-0.42621-1.2803 0.15982-1.0833-0.2131-2.8068-0.42621-1.7234-0.95895-1.7234t-0.26639-4.5302q0.26639-4.5795 0.37296-6.8938 0.15982-2.3636 0.85239-2.6098 0.63931-0.24622 0.9057-1.4772t1.0655-1.3295q0.79913-0.1477 1.7581-1.4772 0.9057-1.3787 3.0367-3.3484t1.7581-2.2159q-0.42621-0.24622-0.42621-0.73865 0-0.49237 3.9957-2.5606 3.9957-2.1174 3.7293-2.9545l-0.2664-0.8864 1.3319-0.0985 1.3319-0.1478 0.7991-0.1477 0.7991-0.0985 22.642 0.0985q22.642 0.1477 39.424 2.3636t18.38 2.4621q1.5983 0.24622 3.1965 0.24622zm11.827 39.541q-0.10657-0.1477 0-0.29541 0.15985-0.098511 0.15985 0.1477 0 0.24622-0.15985 0.1477z"/>
  <path d="m214.7 251.23l0.7991 0.1477 0.7991 0.1477 0.7991 0.0985-0.2664 1.5757q-0.26636 1.625 0.26642 1.7727 0.53278 0.098511 0.79913 0.49243 0.26636 0.34467 1.0655 0.19696 0.79913-0.098511 0.9057 0.39392l0.1599 0.4924 0.1598-0.0985 0.1066-0.1477 0.1066-0.1477 0.1598-0.0985 0.1599 0.4924 0.1066 0.4924 0.5328-0.0985 0.5327-0.1477 0.5328-0.2462 0.5328-0.2462h1.0655l0.5328 0.1477 0.5327 0.0985 1.7048 6.4014q1.7581 6.4014 2.6638 8.371 0.95898 1.9697 2.9835 3.6931 1.9712 1.7234 3.7293 3.1022 1.7048 1.3295 3.3031 1.822 1.5983 0.49237 3.1965 0.64014l1.5983 0.0985v0.24621l-0.5328 0.2462-0.5327 0.2462-0.5328 0.2462-0.5328 0.2462-0.5327 0.2462-0.5328 0.2462 0.1066 0.1478 0.1598 0.0985 0.1599 0.0985 0.1066 0.1477 0.1065 0.1477 0.1599 0.0985v0.49244l-0.1599 0.0985-0.1065 0.1477 3.4629 0.4924q3.463 0.49243 3.7293 1.6249 0.26636 1.0834 0.79913 1.0834 0.53278 0 0.53278 0.73859 0 0.73865-0.42621 0.98486-0.37292 0.24616 0 1.3295 0.42621 1.1326 1.2253 1.2803 0.79913 0.098511 0.79913 0.59094 0 0.49237 0.63934 0.73859 0.69257 0.24622 5.1144 1.822 4.3686 1.6249 6.766 2.3636 2.3974 0.73859 3.4629 0.49237 1.0656-0.24616 1.8647 0 0.79913 0.24622 1.8646 0.49243 1.0656 0.24622 1.3319 0 0.26636-0.24622 0.79913-0.39392l0.5328-0.0985-0.2664 2.9545q-0.26642 2.9545 0.37292 3.2007 0.69257 0.24622 0.53272 2.462-0.10651 2.2159 1.2253 2.6098 1.3319 0.34473 5.4874 0.49243 4.1022 0.09845 4.4752-0.29547 0.42621-0.34467 3.1966-0.49237 2.8236-0.098511 3.7293-0.83716 0.95892-0.73859 1.4917-0.1477 0.53278 0.64014 2.9302 0.49243 2.3974-0.098511 2.131-0.68939-0.26642-0.64014 0.79913-1.1326 1.0655-0.49237 2.9302-0.49237 1.8646 0 2.3974-0.14777 0.53278-0.09845 0.63928-0.59088 0.15985-0.49243 0.31964 0 0.10657 0.49243 0.9057 0.59088 0.79913 0.14777 3.9957-0.8371 3.1965-0.9848 4.262-1.1325 1.0656-0.098511 1.0656-0.59094t3.1965-0.9848q3.1965-0.49243 3.1965-0.98486 0-0.49237 2.9302-1.0833 2.9302-0.64014 2.3974-0.88629-0.53272-0.24622 1.8647-0.73865t2.8236-0.8371q0.37292-0.39392 0.53278-0.98486 0.10657-0.64014 0.63928-0.78784 0.53278-0.09845 0.79913-0.49243 0.26642-0.34467 0.9057 0 0.69257 0.39398 1.5983-1.0833 0.95898-1.4772 2.8236-1.3787 1.8647 0.1477 4.1023-1.4772 2.2908-1.5757 2.6638-1.1818 0.42621 0.34473 0.95898 0.59088l0.5327 0.2462 0.1066 0.1478 0.1599 0.0985 0.2664-0.4924 0.2664-0.4924 0.1599-0.7386 0.1066-0.7386 0.5328 0.0985 0.5327 0.1478 0.1066 0.1477 0.1599 0.0985 0.1598 0.2462 0.1066 0.2462-0.1066 0.7386-0.1598 0.7386-0.2664 0.4924-0.2664 0.4924-0.2664 0.4924q-0.26642 0.49243-1.5983 2.7083-1.3318 2.2158-5.0612 6.6476-3.7293 4.4317-6.9259 7.3862-3.1965 2.9545-7.4586 6.4014-4.262 3.4469-12.413 8.4695-8.098 5.0719-16.622 9.0112-8.5242 3.9393-18.913 7.5339l-10.389 3.5454v-0.98486l-0.7991-0.0985-0.7992-0.1478-0.1065-0.1477q-0.15985-0.098511-0.31964-0.19696-0.10657-0.1477-3.0367-0.39392-2.9302-0.24622-4.635-0.88635-1.7581-0.59088-3.7293-0.9848-2.0245-0.34473-2.5572 0.29541-0.53272 0.59088-3.7293 0.59088-3.1965 0-3.1965-0.49237 0-0.49243-8.2578-2.0682-8.2578-1.6249-19.446-5.0718t-12.147-4.284q-0.9057-0.88635-1.8114-0.98486-0.95898-0.1477-0.85242-1.4772 0.15985-1.3787-0.53278-1.4772l-0.6393-0.1477h-0.53278l-0.1066-0.1477-0.1598-0.0985h-0.26642l-0.2664-0.0985-0.2664-0.1477-1.0656-0.1477-1.0655-0.0985 0.1066-0.4924q0.15979-0.49243 0.31964-0.59094l0.1065-0.1477 0.1066-0.1477 0.1599-0.0985 0.1598-0.0985q0.10657-0.14777 0-0.29547l-0.1598-0.0985-0.2664-0.9848q-0.26636-0.9848-0.42615-1.4772-0.10657-0.49243 1.4917-0.59088 1.5983-0.14777 2.0245-0.49243 0.37292-0.39392 0-0.78784-0.42621-0.34473 0.10657-0.49243 0.53272-0.098511 0.53272-0.59088 0-0.49243-0.53272-0.59094-0.53278-0.1477 0.79913-0.88629 1.3319-0.73865 1.5983-1.3788 0.26636-0.59088 0.79913-0.59088 0.53278 0 0.42621-0.98486-0.15985-0.9848 0.74585-1.4772l0.959-0.4924 0.1066-0.7386 0.1598-0.7386 0.1599-0.0985 0.1066-0.1477-0.1066-0.1478-0.1599-0.0985-0.1598-0.0985-0.1066-0.1477-1.3319-0.1477q-1.3319-0.098511-1.3319-0.83716 0-0.73859-2.3974-1.3295-2.3974-0.64008-5.5939-2.6097-3.1966-1.9697-4.2621-3.1022-1.0655-1.0833-2.7703-2.0681-1.7581-0.98486-1.3852-1.3788 0.42621-0.34467-0.10657-0.59088-0.53272-0.24622 0.10657-0.88635 0.69257-0.59088-0.10657-1.5757-0.79913-0.9848-0.63928-1.3787 0.10657-0.34473 0.10657-1.1818 0-0.88635-0.53278-0.88635t-0.53278-0.49237q0-0.49243-0.53278-0.49243-0.53272 0-0.26636-0.59088 0.26636-0.64014 0.26636-0.98486v-0.49237q0-0.14777 2.7704-1.7727 2.8236-1.5757 4.7948-3.2992 2.0245-1.7234 4.049-4.9241 1.9712-3.2007 3.3031-6.6476t2.7704-10.587l1.4917-7.14h0.26636l0.2664 0.4924 0.2664 0.4924 0.2664-0.4924 0.2664-0.4924h1.5983q1.5983 0 1.7581-0.49243 0.10651-0.49243 0.90564-0.49243 0.79919 0 0.79919-0.49237 0-0.49243 0.79913-0.39392zm55.247 90.604q0.15985-0.098511 0.31964 0l0.1066 0.1477h-0.26636q-0.26642 0-0.15985-0.1477z"/>
  <path d="m151.57 179.83l1.5983-0.0985 0.2664 0.8864q0.26636 0.8371-3.1966 2.6591-3.4629 1.8712-3.9957 3.2499-0.53278 1.3295-2.2376 2.9545-1.7581 1.5758-2.6638 2.9545-0.95895 1.3295-1.7581 1.4772-0.79913 0.098511-1.0655 1.3295-0.26639 1.231-0.9057 1.4772-0.69257 0.24622-0.85239 2.6098-0.10657 2.3143-0.37296 6.8938-0.26636 4.5302 0.26639 4.5302 0.53274 0 0.95895 1.7234 0.37292 1.7234 0.2131 2.8068-0.10654 1.1326 0.42621 1.2803 0.53278 0.09845 0.10657 1.8219-0.37296 1.7234-0.10657 2.2159 0.26639 0.49243 0.53278 1.4772 0.26636 0.98486-0.10657 1.7234-0.42621 0.73865 0.10657 0.73865 0.53274 0 1.1721 2.9545 0.6926 2.9545 1.2253 4.6779 0.53274 1.7234 0.79913 4.1856 0.26639 2.462 0.95895 5.6627 0.63931 3.2007 1.2787 3.4469 0.69257 0.24622 0.85239 0.73865 0.10657 0.49243 1.4384 0.49243 1.3319 0 1.3319 0.49237 0 0.49243 1.7048 0.98486 1.7581 0.49237 3.1965 1.3787 1.4917 0.8371 2.2909 0.98486l0.7991 0.0985v-0.49243q0-0.49237 0.79913-0.59088l0.7991-0.1477 0.1066-0.1477 0.1598-0.0985 0.2664-0.9848 0.2664-0.9849h0.26636l0.6393 7.3862q0.6926 7.3862 3.09 14.034 2.3974 6.6476 4.6883 9.7005 2.2376 3.1022 4.9014 5.3181 2.6638 2.2158 5.0612 3.2007 2.3974 0.9848 6.3931 0.9848t4.5284-0.1477l0.5327-0.0985v0.39392q0 0.34473-0.26636 0.98486-0.26636 0.59088 0.26636 0.59088 0.53278 0 0.53278 0.49243 0 0.49237 0.53278 0.49237t0.53278 0.88635q0 0.8371-0.10657 1.1818-0.15985 0.39392 0.63928 1.3787 0.79913 0.98486 0.10657 1.5757-0.63928 0.64014-0.10657 0.88635 0.53278 0.24622 0.10657 0.59088-0.37292 0.39392 1.3852 1.3788 1.7048 0.9848 2.7703 2.0681 1.0655 1.1326 4.2621 3.1022 3.1965 1.9697 5.5939 2.6097 2.3974 0.59094 2.3974 1.3295 0 0.73865 1.3319 0.83716l1.3319 0.1477 0.1066 0.1477 0.1598 0.0985 0.1599 0.0985 0.1066 0.1478-0.1066 0.1477-0.1599 0.0985-0.1598 0.7386-0.1066 0.7386-0.959 0.4924q-0.9057 0.49243-0.74585 1.4772 0.10657 0.98486-0.42621 0.98486t-0.79913 0.59088q-0.26636 0.64014-1.5983 1.3788-1.3319 0.73859-0.79913 0.88629 0.53272 0.098511 0.53272 0.59094 0 0.49237-0.53272 0.59088-0.53278 0.1477-0.10657 0.49243 0.37292 0.39392 0 0.78784-0.42621 0.34467-2.0245 0.49243-1.5983 0.09845-1.4917 0.59088 0.15979 0.49243 0.42615 1.4772l0.2664 0.9848 0.1598 0.0985q0.10657 0.1477 0 0.29547l-0.1598 0.0985-0.1599 0.0985-0.1066 0.1477-0.1065 0.1477q-0.15985 0.098511-0.31964 0.59094l-0.1066 0.4924 1.0655 0.0985 1.0656 0.1477 0.2664 0.1477 0.2664 0.0985v0.24621l-0.1066 0.1477-0.1598 0.0985-0.1599 0.0985-0.1065 0.1478h-0.53278l-0.1066-0.1478-0.1598-0.0985-0.1599 0.0985-0.1066 0.1478-0.1066 0.1477-0.1598 0.0985-0.2664 0.4924-0.2664 0.4924-0.1598 0.0985-0.1066 0.1478h-0.53278l-0.7991-0.2462q-0.79913-0.24622-2.2908-1.0833-1.4385-0.88635-4.4752-1.7727-3.09-0.8371-3.5162-1.6742-0.37292-0.88635-1.5983-1.1326-1.1721-0.24622-1.1721-0.73859 0-0.49243-2.9302-1.0833-2.9302-0.64014-2.3975-0.7879 0.53278-0.09845 0.63934-1.0833l0.1599-0.9848-0.1599-0.0985-0.1066-0.1477h-0.79913q-0.79913 0-0.9057 0.1477-0.15979 0.098511-1.5983 0.59094-1.4917 0.49237-1.5983-0.49243-0.15985-0.9848-1.5983-1.231-1.4917-0.24622-1.5983 0.24622-0.15982 0.49237-1.0655 0.09845-0.95895-0.34467-14.544-2.9545-13.585-2.5606-14.118-4.0378-0.53274-1.4772-2.131-1.0833-1.5983 0.34467-2.3974 1.3295-0.79913 0.9848-1.3319 1.231-0.53278 0.24622-9.3233-1.5757-8.7905-1.8712-8.7905-2.6098 0-0.73859-4.5284-2.1174-4.5284-1.3295-15.983-6.5983-11.454-5.318-11.561-5.8105-0.15982-0.49243-3.5162-2.5606-3.3031-2.1174-7.4586-5.712-4.1022-3.5454-8.6307-9.4544-4.5285-5.9089-7.1923-12.064-2.6638-6.1552-2.9302-13.295-0.26636-7.14 0.79916-12.803 1.0655-5.6628 4.262-12.803 3.1966-7.14 6.6595-11.818t8.2578-9.6021q4.7948-4.9241 6.0201-5.4165 1.1721-0.49243 1.0655-0.98486-0.15982-0.49237 1.2787-2.2158l1.4917-1.7235 12.147-3.2007q12.094-3.2007 14.917-3.2991 2.7704-0.1477 13.958-1.8712 11.188-1.7234 12.52-1.8712l1.3319-0.0985 3.7293-0.3939q3.7293-0.34473 5.3276-0.49243z"/>
  <path d="m207.4 250.15l0.1066 2.9545-1.4917 7.14q-1.4385 7.14-2.7704 10.587-1.3318 3.4469-3.3031 6.6476-2.0245 3.2007-4.049 4.9241-1.9712 1.7234-4.7948 3.2992-2.7704 1.6249-2.7704 1.7727v0.09845l-0.5327 0.0985q-0.53278 0.1477-4.5284 0.1477-3.9957 0-6.3931-0.9848-2.3974-0.98486-5.0612-3.2007-2.6638-2.2159-4.9014-5.3181-2.2908-3.0529-4.6883-9.7005-2.3974-6.6476-3.09-14.034l-0.6393-7.3862 1.4917-7.14q1.4384-7.14 3.8358-12.31 2.3974-5.1704 4.3686-7.6324 2.0245-2.462 2.5572-2.462 0.53274 0 1.8646-1.3788 1.3319-1.3295 4.5284-2.3143 3.1966-0.9848 6.9259-0.73865 3.7293 0.24622 6.9258 1.7234 3.1965 1.4773 6.4996 5.2689 3.3564 3.8408 4.6883 6.7953t3.1965 11.572q1.8647 8.6172 2.0245 11.572zm-24.933-29.545q2.6638-0.24622 4.7948 0.73865 2.131 0.9848 4.3686 3.7916 2.2908 2.856 4.6882 9.5036t2.6638 14.034q0.26636 7.3862-1.5983 14.526-1.8647 7.14-3.463 9.602-1.5983 2.4621-4.1022 4.8256-2.5572 2.3144-6.5529 2.5606-3.9957 0.24616-7.6185-3.053-3.5695-3.3484-5.9669-10.488-2.3974-7.14-2.6638-14.526-0.26639-7.3862 0.79913-12.064 1.0655-4.6779 3.5695-9.7005 2.5572-5.0719 5.4874-7.2877 2.9302-2.2159 5.594-2.4621z"/>
  <path d="m198.35 106.85l0.1066 11.818h7.1923q1.3318 0 1.4384 0.73862 0.15985 0.73862 0.15985 1.231v0.4924l0.1598 0.0985 0.1066 0.1477 0.1066 0.1477 0.1598 0.0985 0.1599 0.0985 0.1066 0.1477 0.1066 0.1477 0.1598 0.0985 0.1599 0.0985 0.1065 0.1477 0.5328 0.1477 0.5328 0.0985v0.24621l0.1066 0.1477 0.1598 0.0985 0.1599 0.0985 0.1066 0.1477 0.1065 0.1477 0.1599 0.0985 0.1598-0.0985 0.1066-0.1477 0.1066-0.1477 0.1599-0.0985 0.3729 0.5909q0.42621 0.64011 1.3851 0.78784 0.9057 0.09848 1.5983 1.9696 0.63934 1.822 1.5983 2.1667 0.90564 0.39392 0.53272 1.6249-0.42621 1.231 0.37292 1.231 0.79919 0 1.0656 1.231 0.26636 1.231 0.79913 1.231 0.53278 0 0.53278 0.73862v0.73862l-0.2664 0.0985q-0.26636 0.1477-0.69257 0.4924-0.37292 0.39392-0.74585 0.78784l-0.4262 0.3447 0.1066 0.1477 0.1598 0.0985 0.5328 0.4924q0.53278 0.49243 0.15979 1.231-0.42615 0.73862 0.37299 0.8371 0.79913 0.14774-0.53278 0.49243-1.3319 0.39392-0.53278 1.7727 0.79913 1.3295 0.9057 1.4772 0.15985 0.098511 0.31964 0.19696l0.1066 0.1477-1.8647 0.2462q-1.8646 0.24622-4.5284 0.73865t-2.9301-0.1477q-0.26642-0.59094-0.79919-0.49243-0.53272 0.1477-1.3318-0.098511-0.79913-0.24622-3.463-0.24622-2.6638 0-4.5284 0t-1.0655 0.24622q0.79913 0.24622-1.0656 0.24622-1.8646 0-2.3974 0.24622-0.53278 0.24622-1.8647 0.24622-1.3318 0-1.7581-0.34473-0.37292-0.39392-0.63934-0.1477-0.26636 0.24622-1.1721 0.34473-0.95898 0.1477-1.4917-0.49243-0.53278-0.59088-1.8647-0.49243-1.3319 0.1477-1.7581 0.78784-0.37299 0.59094-0.53278 0.098511-0.10657-0.49243-0.63934-0.49243-0.53272 0-0.63928 0.49243-0.15985 0.49243-0.42621-0.24622-0.26636-0.73859-3.09-0.73859-2.7703 0-2.8769 0.49237-0.15979 0.49243-1.3851 0.59094-1.1721 0.1477-1.5983-0.49243-0.37292-0.59088-1.0655-0.19696-0.63931 0.34467-1.0655 0.9848-0.37296 0.59088-0.74588 0.19696-0.42621-0.34467-0.85242 0-0.37292 0.39392-0.90567 0.39392-0.53278 0-1.7581-0.39392-1.1721-0.34467-3.0367-0.59088-1.8646-0.24622-2.504 0.39392-0.6926 0.59088-2.4507 0.59088h-1.7048l-0.7991 0.0985-0.7991 0.1477-0.1066 0.1478-0.1598 0.0985-0.2664-0.4924-0.2664-0.4924-0.2664-4.6779q-0.26639-4.6779-0.53278-5.909-0.26636-1.231-1.3319-3.2007t-1.8646-4.678q-0.79913-2.7082-0.42621-3.9393l0.4262-1.231h0.10657q0.15982 0 0.31964-0.24622l0.1065-0.2462 2.3974-1.0833q2.3974-1.1325 14.384-1.2803l11.987-0.0985 0.4262-12.556q0.37292-12.556 2.131-14.132 1.7048-1.6249 7.0324-1.6249t6.8193 1.6249q1.4385 1.5757 1.7048 2.3144 0.26642 0.73862 0.42621 12.556z"/>
  <path d="m309.27 235.87l0.2664 0.4924 0.2664 0.7386 0.2664 0.7386 0.1598 0.4924 0.1066 0.4924v0.098511q0 0.1477 0.95898 5.9089 0.9057 5.8105 0.10657 11.966-0.79913 6.1552-2.9302 10.833-2.131 4.6779-5.1678 7.0415-3.09 2.3144-7.0857 2.3144t-7.1922-2.9545-5.4341-8.7157q-2.2909-5.8105-2.6638-12.212l-0.4262-6.4014 0.6393-3.9393q0.69257-3.9393 2.8236-8.6172t3.0367-5.909q0.95892-1.231 4.1555-2.8068 3.1965-1.6249 5.8603-1.3787 2.6638 0.24622 4.9014 1.8712 2.2908 1.5758 2.4507 2.0682 0.10651 0.49237 0.63928 0.49237 0.53278 0 1.7048 2.2159 1.2253 2.2159 1.7581 3.4469 0.53272 1.231 0.79913 1.7234zm-5.4341-6.7953q-0.69257-1.0833 0.10657-0.34473 0.79913 0.73865 0.63928 1.1326-0.10657 0.34467-0.74585-0.78784z"/>
  <path d="m149.01 122.86l2.0245-1.7234-0.6393 1.4772q-0.69257 1.4773 0.10657 4.1855 0.79913 2.7083 1.8646 4.678t1.3319 3.2007q0.26639 1.231 0.53278 5.909l0.2664 4.6779 0.2664 0.4924 0.2664 0.4924 0.1598-0.0985 0.1066-0.1478 0.7991-0.1477 0.7991-0.0985 0.6393 1.2311q0.6926 1.231 0 2.1174-0.63931 0.8371-1.4384 0.9848-0.79913 0.098511-0.9057 2.0682-0.15982 1.9697 0.37292 14.034 0.53278 12.064 0.6926 12.163 0.10657 0.1477 0.63931 0.39392l0.5327 0.2462v0.24621l-0.7991 0.0985-0.7991 0.1477-1.3319 0.1478-1.3319 0.0985-1.5983 0.0985q-1.5983 0.1477-5.3276 0.49243l-3.7293 0.3939v-0.24621l0.1065-0.1477 0.1598-0.0985 0.2664-24.621q0.26639-24.621 0.53274-25.606 0.26639-0.98483 1.8646-3.2007 1.5983-2.2158 3.5695-3.9393z"/>
  <path d="m171.71 34.715l0.1066 1.231 19.978 0.0985q19.978 0.14774 21.31 0.39395 1.3319 0.24622 2.9302 0.4924l1.5983 0.2462 1.0655 0.1477 1.0655 0.0985-0.1065 0.7386-0.1599 0.7386-1.3319 1.9697q-1.3319 1.9696-1.4917 39.787-0.10657 37.768-2.6638 38.408-2.504 0.59091-2.7703 1.3295l-0.2664 0.7386-0.1599 0.0985-0.1066 0.1477-0.1066 0.1477-0.1598 0.0985-0.1599 0.0985-0.1065 0.1477-0.1066 0.1477-0.1599 0.0985-0.1598 0.0985-0.1066 0.1477v0.24618l-0.5328-0.0985-0.5328-0.1477-0.1065-0.1477-0.1599-0.0985-0.1598-0.0985-0.1066-0.1477-0.1066-0.1477-0.1599-0.0985-0.1598-0.0985-0.1066-0.1477-0.1066-0.1477-0.1598-0.0985v-0.4924q0-0.49243-0.15985-1.231-0.10657-0.73862-1.4384-0.73862h-1.3319v-77.802l-19.978-0.0985q-19.978-0.14774-24.507 0.09848-4.5284 0.24618-6.1267-0.24622-1.5983-0.49243-3.9957-2.2159-2.3974-1.7234-4.9546-6.0074-2.504-4.3332-3.0367-9.2574-0.53274-4.9242 0.26639-8.371l0.7991-3.4469 0.1598-0.2462 0.1066-0.2462 0.7991-0.0985 0.7991-0.1477 0.1066-0.1477 0.1598-0.0985 0.1598 0.0985 0.1066 0.1477 0.1065 0.1477 0.1598 0.0985 0.1598-0.4924 0.1066-0.4924 0.5328 0.0985 0.5327 0.1477-0.1066 0.1477q-0.15982 0.09848-0.31964 0.19696l-0.1065 0.1477 0.1065 0.1477 0.1598 0.0985 0.1598 0.0985 0.1066 0.1477 0.1066 0.1477 0.1598 0.0985v1.9696l0.2664 0.4924 0.2664 0.4924 0.1598-0.0985 0.1066-0.1477 0.1065-0.1477 0.1599-0.0985 0.2664-0.7386 0.2664-0.7386 1.7581-2.3636q1.7048-2.3143 3.5695-3.2992 1.8646-0.98483 4.5284-0.73862 2.6638 0.24622 4.9014 2.3636 2.2908 2.0682 3.5162 5.7612 1.1721 3.6931 1.8114 3.4469 0.69257-0.24618 1.3852 1.3295 0.63931 1.625 1.1721 2.7575 0.53278 1.0833 1.0655 1.0833 0.53278 0 0.10657 3.4469-0.37296 3.4469-0.63931 5.4166-0.26639 1.9696-0.10657 3.2007z"/>
  <path d="m263.34 247.19l0.1066 3.4469-0.6393 5.6628q-0.69257 5.6627-2.9834 11.178-2.2376 5.5643-5.7006 8.765-3.4629 3.2007-5.3276 3.6931-1.8646 0.49237-3.1965 0.64014l-1.3319 0.0985-1.5983-0.0985q-1.5983-0.14777-3.1965-0.64014-1.5983-0.49243-3.3031-1.822-1.7581-1.3787-3.7293-3.1022-2.0245-1.7234-2.9835-3.6931-0.9057-1.9697-2.6638-8.371l-1.7048-6.4014 0.1066-7.3862q0.15985-7.3862 1.0656-9.7498 0.95892-2.3144 1.9179-4.6287 0.9057-2.3636 1.8114-4.9241 0.95892-2.6098 4.1555-5.318 3.1965-2.7083 5.0612-3.4469 1.8647-0.73865 5.8604-0.49243t6.0201 1.3787q1.9712 1.0834 2.131 1.5758 0.10657 0.49243-0.42621 0.49243-0.53272 0 1.5983 2.856 2.131 2.8068 3.1965 2.659 1.0655-0.09845 2.7703 4.3332 1.7581 4.4317 2.2909 7.14 0.53272 2.7082 0.69257 6.1552z"/>
 </g>
</svg>
