<?xml version='1.0' encoding='utf-8'?>
<svg xmlns="http://www.w3.org/2000/svg" viewBox="0 0 841.9 595.3"><path d="m82.7 261.4 30.7-18.8 5 17-23.9 14.5z" fill="#9dd3cc"/><path d="m343.3 207.6-1.4 12.6 23.6 2.5-.4-10.6-21.3-4" fill="#9dd3cc"/><path d="m408.1 373.1.7-.3 39-15 2.5 3.5-19.6 36.4-41.2 15.7h-1.9" fill="#9dd3cc"/><path d="m488.4 360.2 16.1 2.9 4.9 24.6-14.6-3.4z" fill="#9dd3cc"/><path d="m646.5 360.4 9.6-2.6-6.4 22-10.7-2z" fill="#9dd3cc"/><path d="m746.5 334.7 7.2 3.9-7.2 13.2-11.2-1.3z" fill="#9dd3cc"/><g fill="#181715" fill-rule="evenodd"><path d="m660.6 359.5c-.3-.6-.4-1-.6-1.4-.3.2-.7.4-.9.6-1.1 1.7-2.1 3.5-3.2 5.2-.1.2-.1.4-.1.6.3 0 .6 0 .7-.1.8-.7 1.7-1.3 2.3-2.1.7-.8 1.2-1.8 1.8-2.8zm-6.2-4.8c1.4-.3 2.5-.6 3.6-.7 1.2-.1 1-.5.7-1.3-1.1-3-3.1-5.3-5.3-7.5-.1-.1-.2-.2-.4-.3 0 .2-.1.4-.1.6.2 2.6.4 5.1.7 7.7 0 .4.1.8.3 1.1.1.2.4.3.5.4zm-153.6 8.3c.1.7.2 1.2.3 1.7.4 1.6.9 3.1 1.3 4.7.6 2.3 1.3 4.7 1.8 7.1.6 2.8 1.1 5.5 1.7 8.3.1.7.6 1.3.9 1.9.1-.8.4-1.6.2-2.3-1.1-5.6-2.4-11.2-3.6-16.9-.3-1.5-.6-3-1-4.5-.1-.4-.7-.8-1.1-1.1-.1.4-.3.9-.5 1.1zm94 47c-.1-.3-.2-.6-.3-1-.5-2.6-1-5.2-1.4-7.8-.6-3.9-1.1-7.8-1.8-11.6-.1-.6-.6-1.2-.8-1.8-.2.5-.5 1.1-.7 1.6-.1.3-.2.5-.2.8-1.1 3.7-2.1 7.4-3.2 11.1-.6 1.9-1.1 3.8-1.7 5.7-.2.7-.2 1.2.5 1.5 2.6 1 5.2 2.1 7.9 3.1 1 .3 1.8-.5 1.7-1.6zm44.9-30.6c2.5-.4 4.9-.8 7.2-1.2.4-.1.8-.4.9-.8 1-2.4 2.3-4.7 3-7.2 1-4 2.7-7.6 4.8-11.1.2-.4.3-.9.5-1.3-.5 0-1-.2-1.5 0-1.9.5-3.8 1.1-5.7 1.8-.6.2-1.1.8-1.4 1.3-1.7 3.2-3.2 6.5-4.8 9.8-1.2 2.4-2.4 4.7-3.6 7.1-.2.4-.3.8-.5 1.1.4.2.8.4 1.1.5zm4.3-65.5c-1 .2-2.1.3-3.1.6-5.2 1.5-10.4 3-15.6 4.6-1.3.4-2.6.9-3.9 1.3-3.3 1-6.7 2-10 3.1-1.9.6-3.8 1.5-5.7 2.3-3.2 1.3-6.5 2.5-9.7 3.9-1.9.8-1.8 1-1.4 3 .2.9.7 1 1.4.7.6-.2 1.1-.6 1.6-.7 3.4-1.1 6.8-2.1 10.1-3.2 3.7-1.3 7.4-2.7 11-4 4.4-1.6 8.8-3.1 13.1-4.8 4.1-1.6 8.1-3.3 12.4-4.2.9-.2 1.8-.7 2.6-1.1.3-.1.5-.4.7-.6-.3-.2-.5-.4-.8-.5-.8-.2-1.7-.3-2.7-.4zm-140.5 70.9c-.3-1.8-.7-4.1-1.2-6.4-.6-2.9-1.4-5.8-2-8.7-.5-2.4-1-4.7-1.5-7.1-.2-1-.7-1.9-1.8-2.2-2.1-.8-4.1-1.6-6.2-2.3-2.7-.9-3-.6-2.3 2.2.1.3.2.6.3.9.1.7.2 1.4.4 2 .2 1 .2 2.3.8 2.8 1.1.9.8 1.7.6 2.6-.1.7-.3 1.4-.2 2 .6 2.6 1.4 5.2 2.1 7.8.4 1.3.8 2.6 1.2 4 .4 1.3 1.2 2.2 2.6 2.5 1.9.4 3.9.9 5.8 1.3 1.4.5 1.5.4 1.4-1.4zm96.8-16.1c.2 1.4.5 3.5.9 5.5.5 2.7 1.2 5.4 1.8 8.1.4 1.8.7 3.7 1.3 5.5s.8 1.7 2.6 1.1c.7-.2 1.4-.4 2-.7 3.1-1.5 6.2-3.2 9.3-4.6 5.4-2.4 10.9-4.6 16.2-7.1 1.8-.8 3.5-1.8 4.5-3.7.5-.9.3-1.1-.7-1.1-2.3 0-4.5 0-6.8-.1-1.8-.1-3.5-.2-5.3-.3-4.8-.4-9.7-.6-14.5-1.3-3.4-.5-6.7-1.8-10.1-2.8-1.2-.5-1.3-.5-1.2 1.5zm-84.5-86.7c-2.6 1.1-5.6 1.1-7.7 3.2-.2.2-.4.3-.6.5.3.2.5.4.8.5 2 1 4.2 1.5 6.1 2.7 1.8 1.2 3.8 1.9 5.8 2.7.6.3 1.4.3 2 .6 3.1 1.2 6.1 2.5 9.2 3.8 2.6 1.1 5.3 2.1 7.9 3.3 5.3 2.5 10.6 5.2 16.3 6.8 2.7.7 5.2 2.1 7.8 3.2 1.5.6 3.1 1 4.5 1.7 4.5 2.2 8.9 4.4 13.7 5.9 2.2.7 4.4.5 6.5-.2.7-.2 1.2-.9 1.8-1.3-.6-.6-1-1.4-1.7-1.7-3-1.4-6.1-2.8-9.3-4-2.9-1.1-5.8-2.1-8.7-3.1-3.8-1.4-7.5-2.8-11.3-4.2-3.3-1.3-6.6-2.7-10-4.1-2.5-1.1-5.1-2.1-7.6-3.3-4-1.9-7.8-3.9-11.8-5.7-3.6-1.6-7-3.5-10.3-5.6-1-.7-2.2-1.1-3.4-1.7zm70.4 55.5c.6 4 1.3 8 1.9 12 .6 4.3 1.1 8.6 1.7 12.8.2 1.6.5 3.2.8 4.7 0 .2.2.3.3.5.1-.2.3-.3.3-.5.1-1.5.2-3 .2-4.5 0-1 .4-1.8 1.5-1.8 1.2 0 1.3.9 1.4 1.9.2 2.5-.3 5-1 7.3-1.2 4.1-1.2 8.2-.6 12.3.6 4.3 1.7 8.6 2.4 12.9.6 3.7 1 7.4 1.5 11 .3 1.8.6 3.5 1 5.2.1.7.5.8 1.2.5 2.1-1 4.3-1.8 6.4-2.7.7-.3 1.2-.6.9-1.5-.4-1.5-.7-3-1-4.5-1.4-5.6-2.8-11.2-4.1-16.8-1.6-7.6-3.7-15.1-4.4-22.9-.5-5.3-1.7-10.5-2.6-15.7-.6-3.7-1.2-7.4-1.7-11.2-.8-5.4-1.6-10.7-2.2-16.1-.1-1.2-.6-1.5-1.6-1.1-1.1.3-2.1.7-3.1 1-.9.3-1.2.8-1.1 1.7.2 1.5 1.3 11.7 1.9 15.5zm47.6 31.5c3 .3 5.4-1.2 8-2.2.1-.1.3-.2.3-.3 1-2.1 2.5-4.2 2.9-6.5.4-1.8 1.2-2.2 2.7-2.5.4-.1.8-.1 1.1-.3.6-.4 1.4-.9 1.5-1.5.2-1.1 0-2.3 0-3.4-.1-4.5-.2-9.1-.2-13.6 0-2.9 0-5.9.1-8.8 0-1.2.2-2.3.2-3.5.1-2.6.2-5.2.3-7.8 0-.9-.3-1.4-1.2-1.3-.6.1-1.2.1-1.8.3-3.4 1-6.8 1.9-10.1 3.1-4.5 1.6-8.9 3.4-13.3 5.1-6.1 2.3-12.2 4.5-18.3 6.8-3 1.1-6 2.3-9 3.4-.9.3-1.3.8-1.2 1.9.2 2.1.3 4.3.6 6.5.3 2.1.9 4.2 1.3 6.3.7 3.6 1.3 7.2 2.1 10.8.2.8.9 1.7 1.6 2.1 3.9 2.2 8.2 3.4 12.6 4 5.6.7 18.9 1.4 19.8 1.4zm-126.9-65.2c.5 2.5 1.2 5.1 1.7 7.6.4 2.3.4 4.7.9 6.9 1 4.1 1.3 8.4 2.6 12.5 1.5 4.7 2.1 9.7 3.3 14.5 1.3 5.3 2.8 10.6 4.2 15.9 1.1 4.2 2.2 8.3 3.3 12.5.3 1.2 2.2 5.5 3.3 6 .5.2 1 .4 1.5.7 2.8 1.2 5.6 2.4 8.3 3.8 2.1 1 4 2.3 6 3.5 1.9 1.1 3.7 2.1 5.6 3.1 2.2 1.2 4.4 2.5 6.7 3.6 1.4.7 3 1.1 4.5 1.8 3.6 1.7 7.2 3.4 10.8 5.1 3.7 1.7 7.5 3.1 11.2 4.8.8.3 1.1.3 1.4-.5.5-1.4 1-2.8 1.4-4.2 1.2-4.4 2.2-8.8 3.6-13.1 1.2-3.5 1.7-7.2 1.6-10.8-.1-4.6-.8-9.3-1.4-13.9-.7-5.1-1.8-10-2.5-15.1-.6-4.4-1-8.9-1.6-13.4-.4-3-1-6-1.5-9-.2-1.7-.2-3.4-.5-5.1-.1-.6-.5-1.3-1-1.6-2.6-1.3-5.2-2.6-7.9-3.7-3.2-1.4-6.4-2.6-9.7-3.9-2.8-1.1-5.6-2.2-8.4-3.2-2.2-.8-4.5-1.5-6.7-2.4-3-1.3-5.9-2.9-8.9-4.2s-6.1-2.4-9.1-3.6c-2.4-1-4.7-2-7.1-3-2.7-1.1-5.4-2.2-8-3.4-3-1.4-6-2.9-9-4.4-.5-.3-.8-.2-.9.4-.1.5-.2 1.1-.1 1.6.6 2 1.8 11.6 2.4 14.2zm138.7 101.4c-1.5.3-2-.1-2.4-1.6-.5-1.9-1.1-3.7-1.6-5.6-1.3-4.6-2.6-9.2-4-13.7-.2-.7-.8-1.4-1.2-2.1-.3-.6-.5-1.2-.5-1.8-.1-1.3-.4-1.6-1.5-1.1-2.8 1.2-5.6 2.4-8.3 3.8-.6.3-1.1 1-1.4 1.6-1.2 2.8-2.2 5.7-3.3 8.5-.9 2.2-.9 4.2 1 5.9 1.7 1.6 6.7 5.5 7.5 5.9.5.3 1.1.7 1.1 1.2.1.8-.1 1.6-.5 2.3-.1.2-1.3.1-1.8-.2-1.6-1.1-3-2.4-4.5-3.6-2.1-1.8-4.2-3.7-6.2-5.6-.3-.3-.5-.7-.5-1.1 0-.5.1-1 .3-1.5 1.3-3.5 2.6-6.9 4-10.4.1-.3.2-.7.3-1.1-.4.1-.8 0-1.2.2-4.2 2-8.5 4.1-12.7 6.2-.8.4-1.8.7-2.1 1.3s.3 1.6.4 2.4c.6 2.7 1.2 5.3 1.8 8 .3 1.2.9 2.4 1.2 3.6.6 2.2.2 3.3-1.9 4.4-2.7 1.4-5.4 2.8-8.1 4-1.3.6-2.8 1.1-4.3.2-.2-.1-.4-.2-.6-.2-3.6-.1-6.5-2-9.6-3.4-1.1-.5-1.8-.5-2.4.6-.2.4-1 .6-1.5.5-.3-.1-.6-.8-.6-1.3 0-2.6 0-2.6-2.4-3.4-.5-.2-.9-.5-1.3-.7-.5-.2-1.1-.3-1.7-.5.1.5.2 1.1.4 1.6.8 1.9 1.8 3.7 2.6 5.6 1.1 2.3 2.1 4.6 3.3 6.8 1.9 3.6 4 7.1 6 10.7.8 1.5 1.7 2.9 2.1 4.5.3 1.1.1 2.6-.3 3.7-1.2 3.1-2.5 6.1-3.8 9.1-.2.4-.2.9-.5 1.2s-.9.5-1.3.4-.8-.7-.8-1.1c0-.6.4-1.2.6-1.8.9-3.2 2-6.5 2.7-9.8.2-1.2-.4-2.7-1-3.9-2.2-4.5-4.6-8.8-6.8-13.3-1.2-2.3-2.1-4.7-3.3-7-1.5-2.9-3.2-5.8-4.8-8.7-.2-.3-.6-.6-1-.8-4.8-2.2-9.6-4.4-14.3-6.6-2.6-1.2-5.2-2.3-7.8-3.6-.8-.4-1.3-.4-1.7.5-2.2 5-4.5 10-6.6 15.1-1.6 4-2.9 8.1-4.3 12.2-1 3-2 6-3 9-.1.2-.1.4-.1.7-.2 2.6-.8 2.7-3.1 1.5-1.7-.9-3.6-1.5-5.4-2.1-1.1-.4-1.7-1.1-1.4-2.1.3-.9 1.1-1.1 2.2-.7 1.3.5 2.7 1 4 1.6.8.3 1.2.2 1.5-.6 1.6-4.3 3.1-8.6 4.7-12.9 1.2-3.2 2.3-6.4 3.5-9.5 1.7-4.3 3.5-8.5 5.3-12.7.7-1.6.5-2.3-1-3.2-3.3-1.9-6.5-3.9-9.9-5.6-2.6-1.3-5.4-2.3-8.1-3.3-1.6-.6-2.5-1.5-2.5-3.4 0-1.7-.5-3.5-.9-5.2-.6-2.6-1.3-5.3-2.1-7.9-1.3-4.5-2.7-9-3.9-13.5-.5-1.7-.7-3.5-1-5.2-.4-2.1-.8-2.2-2.4-.9-2 1.6-4 3.3-6.1 4.9-2 1.6-4 3.1-6 4.7-.3.3-.6.6-1 .9-.6.6-.7 1.1.3 1.4 1 .4 1.9 1.1 3 1.4 2.2.6 3.2 1.9 3.7 4.2.8 4.2 1.9 8.3 2.8 12.5.5 2.4.8 4.8 1.2 7.2.3 1.6.5 3.3.8 4.9.2 1.1-.2 1.5-1.2 1.8-1.6.4-3 .6-4.7.1-3-1-6.1-1.7-9.1-2.4-1.6-.4-2.7-1-2.7-3 0-1.3-.7-2.7-1.1-4-.8-2.9-1.5-5.9-2.2-8.8-.3-1.1-.7-1.9-1.9-2.2-.7-.2-1.4-.5-1.9-1-1.1-1.1-1.2-2.6-.1-3.7 1.6-1.6 1.8-3.4 1.3-5.5-.3-1.2-.4-2.4-.5-3.6-.1-1.5.5-1.9 1.9-1.5 1.8.6 3.5 1.3 5.3 1.9.4.1.9.2 1.2 0 2.6-2 5.2-4.1 7.8-6.1 2.4-1.8 4.8-3.5 7.2-5.3.9-.7 1.8-1.5 2.5-2.4.3-.4.3-1.1.1-1.7-1-4.6-2.1-9.2-3.1-13.8-1.1-5.1-2-10.1-3-15.2-.8-4.3-1.6-8.6-2.3-12.9-.5-3.4-.8-6.9-1.3-10.4-.2-1.5.2-2.6 1.7-3.3 3.8-1.8 7.7-3.6 11.5-5.2.7-.3 1.9 0 2.6.4 1.6 1 3 2.3 4.5 3.3 1.3.8 2.9 1.3 4.3 2.1 1.9 1 3.7 2 5.5 3 .5.3.9.6 1.4.8 2.4 1 4.9 1.9 7.3 2.9 3 1.3 6 2.9 9 4.1 5.7 2.3 11.5 4.5 17.3 6.7 3.5 1.3 6.9 2.6 10.4 3.9 1.9.7 3.8 1.5 5.7 2.3 2.8 1.2 5.3 2.9 7.7 4.9 1.3 1.1 1.7 2.5 1.9 4.1.3 2.9.7 5.8 1 8.7.1.7.3 1 1.1.7 3.8-1.4 7.6-2.7 11.4-4 3.4-1.2 6.8-2.5 10.3-3.6 4.9-1.5 9.9-2.7 14.8-4.2 3.6-1 7-2.3 10.6-3.4 2.2-.7 4.4-.5 6.4.6 1.2.7 2.5 1.3 3.7 1.9 1 .5 1.4 1.2 1.3 2.2-.2 2.1-.3 4.2-.4 6.3-.2 4-.4 15.5-.4 15.5s5 6.8 6.7 8.9c2.8 3.5 4.3 7.6 3.9 12-.2 2.3-1.3 4.5-3.4 5.9s-4.2 2.7-6.2 4.2c-.5.4-1 1.1-1.2 1.7-1 2.8-1.8 5.6-2.8 8.3-.1.3-.5.6-.9.7-2.5.5-5 1-7.5 1.4-1.2.2-1.5.8-1.3 1.8 1 4 1.6 8.2 3.5 11.9.7 1.4 1.2 3 1.7 4.5.3 1 .9 1.6 2 1.6 2.4 0 4.8.3 7.2-.6 1.1-.4 1.8.1 2.1 1 .4 1.1-.1 1.8-1.1 1.9-1.1.3-7.7.8-9.5 1.2z"/><path d="m430.3 362.1c0 .8.5 1.1 1.7.7 1.1-.4 2.1-.9 3.2-1.2 1-.3 1.3-.9.7-1.8-1.4-2.6-2.4-5.3-2.9-8.2 0-.2-.1-.3-.2-.4-.1.1-.3.3-.4.4-.5 1.9-1 3.8-1.5 5.8-.2 1.3-.3 2.7-.6 4.7zm-17.9 12.6c.2-.1.3-.1.4-.1 2.6-1 5.1-2 7.7-3 5.7-2.2 11.3-4.4 17-6.6 3.7-1.4 7.3-3 10.9-4.5.3-.1.5-.6.8-.9-.4-.1-.9-.3-1.2-.1-1.5.6-3 1.3-4.6 1.9-3.8 1.5-7.7 2.9-11.5 4.3-2.1.8-4.1 1.6-6.2 2.4-2.4.9-4.7 1.8-7.1 2.8-2.1.9-4.2 1.9-6.3 2.9-.2.1-.3.4-.3.6 0 .1.3.2.4.3zm-23.8 37.8c.3.4.5 1 .6.9.5-.2 1.1-.4 1.3-.7 1.2-2.2 2.3-4.5 3.5-6.8 1.1-2.2 2-4.6 3.4-6.6 4.4-6.7 8.5-13.6 11.8-21 .2-.5.4-1 .4-1.6 0-.3-.3-.6-.4-.9-.3.2-.6.2-.8.5-.8 1.2-1.6 2.4-2.2 3.7-.8 1.8-1.2 3.7-2.1 5.4-1.3 2.5-2.7 4.9-4.2 7.4-2.6 4.5-5.1 9.1-8.3 13.2-1.4 1.9-2 4.3-3 6.5zm-16.5-94.4c.7-.1 1.5 0 2.1-.2 3.4-1.1 6.9-2.2 10.2-3.6 5.9-2.5 11.7-5.3 17.6-8 4.3-1.9 8.5-4 12.9-5.7 6.7-2.7 13.4-5.2 20.1-7.8 2.1-.8 4.2-1.8 6.2-2.7.4-.2.7-.7 1-1-.4-.2-.7-.4-1.1-.5-1.4-.5-2.7-1-4.1-1.3s-3.1-1.1-4.3-.6c-4 1.5-7.8 3.5-11.6 5.3-6 2.8-12.1 5.5-18.1 8.3-4.4 2-8.7 4.1-13.1 6.2-6.4 3-12.7 6-19.1 9.1-1.1.5-2.2 1.2-3.3 1.8 1.4.3 2.8.5 4.2.8.2 0 .3-.1.4-.1zm-36.7 96.4c.2.4.3.8.5 1.1 1.2 2 3.3 2.9 5 4.2.1.1.9-.2 1-.5.9-2.5 1.6-5.1 2.4-7.6 2.1-6.5 4.2-13 6.2-19.5 1.3-3.9 2.5-7.9 3.7-11.9.4-1.4.7-2.9 1.3-4.3.4-1 .5-1.7 0-2.7-.9-1.6-1.6-3.3-2.3-5-.4-1-.4-2 .5-2.7.3-.3.9-.5 1.2-.4.4.2.6.7.8 1.1.3.7.4 1.5.6 2.2.1.2.3.3.4.5.1-.2.2-.3.3-.5.3-1.1.7-2.2.9-3.4 1.4-7.2 2.7-14.3 5-21.3 1.5-4.6 2.7-9.3 4-14 .3-1 .5-1.9.7-2.9.4-1.5.7-3 1.3-4.4.6-1.5.5-1.8-1.2-1.9-.5 0-1-.1-1.5-.2-2.3-.5-2.5-.5-3.3 1.7-1 2.7-1.9 5.4-2.7 8.2-1.8 5.7-3.6 11.4-5.4 17.1-2 6.3-4.1 12.6-6 19-1.3 4.2-2.3 8.4-3.5 12.6-1.1 3.9-2.3 7.7-3.4 11.6-1.7 5.6-3.3 11.1-4.9 16.7-.7 2.4-1.1 4.8-1.6 7.2zm113.9-51.1c-.2-.1-.4-.4-.6-.3-1.3.4-2.5.8-3.7 1.3-1.6.7-3.2 1.6-4.8 2.2-4 1.5-8.1 3-12.2 4.4-4.2 1.5-8.5 2.9-12.7 4.4-1.1.4-2.3 1.1-3 2-1.4 1.8-2.5 3.8-3.6 5.7-.7 1.1-1.2 2.4-1.8 3.5-2.4 4.4-4.8 8.7-7.2 13.1-1 1.8-1.9 3.6-2.8 5.4-1.2 2.1-2.4 4.2-3.6 6.4-.1.2-.1.5-.2.8.3 0 .5.1.8 0 .9-.2 1.8-.5 2.7-.8 2.4-1 4.8-2.1 7.2-3 3.9-1.6 8-2.9 11.9-4.7 3.8-1.7 7.4-3.8 11-5.9 1-.6 1.9-1.5 2.6-2.5 1.5-1.9 2.8-3.8 4.1-5.8 1.6-2.4 3-4.7 4.5-7.2.7-1.1 1.2-2.4 1.8-3.5.8-1.4 1.6-2.8 2.4-4.2.7-1.4.6-1.3-.8-2-.6-.3-1.1-1.1-1.2-1.7-.1-.9.6-1.2 1.4-1.2.4 0 .8.1 1.2-.1 1.3-.6 2.8-.9 3.8-1.9 1.1-1.1 1.8-2.8 2.8-4.4zm-104.2 58.9c.5-.1 1-.2 1.4-.3 1.4-.5 2.7-1 4.1-1.5 3.2-1.3 6.4-2.6 9.6-3.8 3-1.2 6-2.3 8.9-3.6 2.3-1 4.7-2 7-3.1 2.4-1.1 4.7-2.4 7.1-3.5 2-.9 4.1-1.6 6.2-2.4 1.3-.5 2.3-1.1 3-2.5.6-1.2 1.4-2.4 2.1-3.6.6-1 1.1-2 1.7-3 1-1.8 2.1-3.5 3.1-5.3 1.2-2 2.3-4 3.5-6 .1-.2.1-.5.2-.8-.3 0-.6-.1-.9 0-2.3.3-4.6.8-6.9.9-3.6.2-7.3.3-11 .4-3.4 0-10.2-.6-15.6-2.4-5-1.7-8.8-4.5-9.8-5.1-.6-.3-.8-.4-1 .4-.4 1.5-.7 3-1.2 4.5-1.5 4.6-3 9.1-4.5 13.7-1.7 5.1-3.4 10.2-5 15.3-1.1 3.4-1.9 6.9-2.9 10.4-.4.9-.3 1.4.9 1.3zm54.4-41.5c2.9-.6 5.5-1.8 6.5-4.7.8-2.3 2.2-3.4 4.3-4.2 5.4-2.2 10.7-4.6 16-6.9.4-.2.8-.7.9-1.2.2-1.1.2-2.3.5-3.4 1.3-5.7 2.6-11.3 3.9-17 .9-4.1 1.7-8.3 2.7-12.4 1.1-4.7 2.3-9.3 3.5-14 1.1-4.6 2.4-9.1 3.4-13.7.7-3.4 2-6.5 3-9.8.1-.4.1-1 .1-1.4-.5 0-1.1 0-1.6.1-.2 0-.3.1-.5.2-5.2 2.1-10.3 4.3-15.5 6.4-3.3 1.3-6.8 2.5-10.1 3.9-4.6 1.9-9.2 3.9-13.7 5.9-5.6 2.5-11.2 5-16.8 7.5-3.5 1.5-7.1 2.8-10.6 4.4-1.7.8-3.8 1.1-4.2 3.6-.3 2.2-1.2 4.4-1.8 6.5-1.3 4.3-2.8 8.5-4 12.9-1.2 4.5-2.3 9.1-3.4 13.7-1 4-2 8.1-2.9 12.1-.3 1.2-.7 2.8-.2 3.7.8 1.3 2.2 2.5 3.7 3.2 2.1 1.1 4.4 1.7 6.6 2.6s9.4 2.6 15.7 2.9c7.1.4 13.2-.7 14.5-.9zm4.5 60.1c.6-4.7-.8-9.1-1.7-13.6-.7-3.7-1.2-7.4-2-11.1-.8-3.9.2-3.5-3.8-2.1-2.1.7-4.1 1.7-6.1 2.5-1.3.6-2.1-.4-2.9-1s-1.4-1.3-1-2.4c.5-1.5 1-2.9 1.6-4.4.3-.8-.1-.9-.7-.7s-1.2.5-1.9.7c-1.4.4-2.8.7-4.1 1.1-.8.2-1.6.5-2.3.9-1.8.9-3.5 1.9-5.2 2.9-.4.2-.8.4-1 .7-1.7 2.5-3.4 4.9-5 7.4-2 3.1-3.9 6.2-5.8 9.3-.4.7-.9 1.4-1.4 2.1-1.1 1.7-2.2 3.4-3.4 5.1-1.4 2.1-2.7 4.3-4.2 6.4-1.3 1.8-1.4 3.2-.4 5.1.7 1.4 1.3 2.8 2 4.2.4.9.9 1.7 1.4 2.6.3.6.7 1.2.9 1.9.2.8.4 1.9-.7 2.1-.9.2-1.6-.5-1.9-1.4-.7-2-1.4-3.9-2.3-5.8-.8-1.7-1.8-3.3-2.7-5-.9-1.5-.6-2.2.7-3.5 1.1-1.1 2-2.5 2.9-3.8 2.5-3.8 5-7.6 7.5-11.4 1-1.5 1.8-3.2 2.8-4.8 1.7-2.7 3.4-5.3 5.1-8 .2-.3.3-.8.4-1.1-.4.1-.7.2-1.1.3-3.8 1.5-7.6 3.1-11.4 4.6-2.7 1.1-5.3 2.2-8 3.1-1.9.6-3.9.8-5.9-.5-3.1-2-6.5-3.3-9.1-6.1-1.2-1.2-1.1-2.2-.7-3.5.9-3 1.8-6 2.7-9 .9-3.3 1.7-6.5 2.7-9.8.9-3 2.2-5.9 3.1-8.9 1.1-3.7 1.9-7.5 2.9-11.2.9-3.2 1.8-6.4 2.8-9.5 1.1-3.7 2.1-7.3 3.3-11 1-3.1 2.2-6 3.2-9.1.8-2.5 1.4-5 2.1-7.5.8-2.8 1.7-5.6 2.5-8.4.9-2.9 1.8-5.8 2.8-8.7.6-1.6 1.1-3.3 2.7-4.3 1-.6 2.1-1 3.1-1.5 4.7-2.2 9.4-4.5 14.1-6.6 2.3-1.1 4.7-1.9 7-3 2.7-1.2 5.3-2.6 7.9-3.8 3.7-1.8 7.5-3.5 11.2-5.3 3.8-1.8 7.5-3.7 11.3-5.5 1.8-.9 3.7-1.6 5.6-2.5s3.8-2 5.8-2.9c1.8-.8 3.7-1.8 5.6-2 1.5-.2 3.2.6 4.8 1.1 2.4.9 4.7 1.9 7.1 2.8 1.1.4 1.5 1.1 1.2 2.2-.4 1.5-.9 3.1-1.4 4.6-.8 2.6-1.5 5.2-2.2 7.8-.9 3.3-1.9 6.6-2.7 9.9-2.1 8.6-4.2 17.1-6.1 25.7-.5 2.1-.1 4.4-.5 6.6-.6 4.4 1.1 8.3 2.6 12.2 1.2 3.1 2.7 3.5 5.7 2 1.6-.8 3.3-1.5 5-2.3.9-.4 1.5 0 2 .7.9 1.4 1.8 2.8 2.6 4.3.2.4.1 1.1-.2 1.5-.8 1.4-1.7 2.8-2.7 4.2-.8 1.1-1.7 2.1-1.5 3.7 0 .5-.5 1.2-.9 1.4-1.7.7-2.2 2.2-3.1 3.6-3.5 5.6-6.1 11.7-10.2 16.9-1.4 1.7-2.3 3.8-3.7 5.5-1 1.2-2.4 2.5-3.9 3-3.6 1.2-6.8 3.2-10.2 4.8-4 1.9-8.1 3.5-12.2 5.2-.6.2-1.2.4-1.7.7-.3.2-.6.7-.5 1.1 1.1 6.8 2.3 13.5 3.5 20.3.4 2.1.7 4.1 1.1 6.2.1.5.5.9.8 1.3 2.8 2.5 6.3 4 9.6 5.6.4.2.9.6.9.9.1.7.1 1.6-.2 2.1-.5.7-1.3.2-1.9-.3-3-2.6-6.7-4-10.4-5.4-1.3-.4-1.7-1-1.7-2.2z"/><path d="m760.7 305.4c1.8-.2 4.9-.5 6.7-.7 1.6-.2-1.2-1-1.3-1-.5-.2-3.5-1.8-4-1.8s-10.2 1.6-22.1 3.2c-14.3 1.8-31.1 3.7-31.6 4 .4.2 1.2.9 2.4 1.3s16.1-1.3 19.6-1.7c4-.5 24.3-2.6 30.3-3.3zm-52 8.1c0-.3.1-.7 0-1-.2-.5-1.7-.8-1.8-.4-.5 2.3-1 4.6-1.3 7-.8 8.1-1.4 16.2-2.3 24.3-.5 4.2-.1 8 2.9 11.2.2.2.5.3.7.5.1-.3.2-.5.2-.8-.1-1.4-.3-2.8-.4-4.1-.2-2.9.2-6-1.2-8.7-.2-.4-.3-.9-.3-1.3 0-1 0-2 1-2.6.7-.4 1.1-.9 1.1-1.8 0-.8.2-1.5.2-2.3.4-6.6 1.1-20 1.2-20zm34.9 37.9c1.5-.2 2.9-2.4 2.5-4-.4-1.9-.3-2.1 1.6-2.7.3-.1.7-.3.9-.6 1.7-2.2 3.3-4.4 4.9-6.6.9-1.2.7-1.7-.8-2.1-1.5-.5-3.1-.9-4.6-1.2-.5-.1-1.2.2-1.6.5-1.7 1.7-3.4 3.5-5 5.3-.2.2-.3.6-.5.8.3-.1.6-.1.8-.3.8-.6 1.3-.2 1.6.4.5.9.3 1.7-.7 2.2-1.3.7-2.6 1.2-3.9 2-.8.5-1.5 1.2-1.9 2-.2.4.1 1.5.4 1.7 2.2 1 4.3 1.8 6.3 2.6zm-34 6.1c0 1.1.5 1.8 1.7 1.7 4.5-.2 9-.4 13.6-.5 3.2-.1 6.4-.1 9.6-.2.6 0 1.2 0 1.8-.1 3.5-.4 6.9-.9 10.4-1.2 1.9-.2 18.8-.9 18.8-1.6.2-4.6.2-9.2.3-13.7 0-1-.4-.8-1-.4-2 1.3-4.1 2.6-6.2 3.9-.9.6-1.9 1.3-2.9 1.6-1.7.5-3.6.8-5.4 1.1-.9.2-1.5.5-1.8 1.4-.4 1.1-1 2.1-1.5 3.2-.5.9-1.2 1.2-2.2 1-3.4-.6-6.6-1.5-9.6-3.1-1-.5-1.7-1.1-1.2-2.3.2-.6 0-.8-.7-.7-1.4.2-2.8.5-4.3.6-5.9.7-11.6.5-17-2.2-2.3-1.1-2.6-1-2.7 1.6v.8c.2 1.8.3 7.9.3 9.1zm3.6-44.8c-1 .1-1.8.5-1.9 1.7-.1 1.5-.3 3.1-.4 4.6-.1 1.3-.4 2.6-.5 4-.1 3.4-.1 6.7-.2 10.1-.1 2-.4 4.1-.5 6.1 0 .6.2 1.5.6 1.7 1.7 1.2 3.5 2.4 5.4 3.2 1.6.7 3.4 1 5.1 1.3s3.5.7 5.3.5c2.8-.3 5.6-1 8.3-1.6 1.9-.4 3-2 3.9-3.6.1-.2-.3-.8-.5-.9-1.4-.6-2.9-1.1-4.4-1.6-2.7-.9-3.4-2.9-1.9-5.4.2-.2.5-.5.8-.5.2 0 .6.3.7.6.2.3.2.6.2 1 .1 1.3.6 2 2 2.2 1.3.2 2.7.5 4 1 1.9.7 1.8.7 3-.8.9-1.2 2-2.4 3.1-3.4.6-.5 1.5-.9 2.2-.9 3.1-.1 6.1.8 9.1 1.8 1.9.7 1.9 1.2.7 2.8-1.9 2.4-3.6 4.9-5.3 7.4-.1.2-.2.5-.2.7.2 0 .4.1.7.1 1.5 0 2.9-.5 4.2-1.3 2-1.2 4.1-2.3 5.9-3.7 2.3-1.6 3.8-3.6 3.9-6.7.1-3.8.7-7.6 1-11.4.4-4.4.8-8.8 1.3-13.2.1-1.2-.4-1.4-1.5-1.3-2.2.2-4.4.4-6.6.6-2.6.2-5.3.4-7.9.7-3 .3-6 .7-9.1 1-4.6.7-27.5 2.9-30.5 3.2zm15.7-7.5c4.1-.5 8.3-1.1 12.3-2 6.8-1.6 13.7-1.9 20.7-2.4.2 0 .4-.1.5 0 2.6 1.1 5.3 2.2 7.9 3.4.4.2.6 1.1.5 1.6-.1 2.9-.3 5.7-.5 8.6-.3 3.4-.5 6.9-1 10.3-.2 1.4-.1 2.6.4 4 .4 1.3.2 2.9-.1 4.2-1 3.4-.9 6.9-.7 10.4.2 2.4-.2 4.8-.3 7.1 0 1.5.1 3.1.1 4.6 0 .3.1.5.2.8.3 2-.2 2.7-2.2 2.8-3.7.2-7.4.3-11.1.4-1.3.1-2.6.2-4 .2-.7 0-.9.2-.7 1 1.1 4.5 2.2 9 3.3 13.5.8 3.3 1.5 6.6 2.2 9.9.2 1 .6 1.5 1.8 1.5 2 .1 4 .4 5.9.7 1.1.1 1.8.7 1.6 1.6-.1 1-1 1.8-2 1.5-1.8-.5-3.5-.8-5.4-.5-.6.1-1.3.1-1.9.2-1.2.3-2.3-.5-2.5-1.7-.2-1.6-.5-3.2-.7-4.7-.4-2.9-3.7-17.3-4.6-20.5-.1-.5-.3-1.1-.5-1.6-.2-.3-.7-.6-1-.6-3.1.4-6.3.9-9.4 1.3-2.7.3-5.4.8-8.1.5-2.5-.3-3.4 1.2-4.1 2.7-2.1 4.3-4 8.6-6.1 12.9-.9 1.8.4 3 1.1 4.2 1 1.7 2.2 3.2 3.6 5 .5.7.9 1.5.1 2.1-.7.5-1.6.6-2.2-.3-1.5-2.1-3-4.1-4.5-6.2-.6-.8-1.4-1.6-1.7-2.6-.2-.6 0-1.6.3-2.3 1-2 2.3-4 3.4-6 .7-1.3 1.1-2.6 1.8-3.9.8-1.6 1.6-3.1 2.3-4.7.1-.2-.2-.8-.3-.8-1.4 0-2.8 0-4.3 0-3 .1-6 .3-8.9.3-.8 0-1.7-.8-2.3-1.5-1.9-2.4-3.7-4.8-5.5-7.3-.7-.9-1.3-2-1.9-3-.2-.3 0-.7 0-1.1.5-3.2 1.2-6.4 1.4-9.6.5-6 .5-12.1 1.1-18.1.4-4.2 1.4-8.3 2.1-12.5.2-1.1.7-1.5 1.8-1.6 2.9-.1 18.6-1.4 22.1-1.8z"/><path d="m116.8 259c-.1-.1-.2-.1-.2-.2 0-.3 0-.7-.1-1-1.2-3.8-2.4-7.6-3.8-11.3-.5-1.3-1.7-2.3-3-1.6-2 1.1-4.2 2.1-6 3.5-1.3 1.1-2.7 1.9-4.2 2.5-.8.3-1.5.7-2.2 1.1-4 2.5-8.1 5.1-12.1 7.7-.2.1-.4.2-.6.4-1.1.9-1.1 2 0 2.9.5.4 1 .9 1.4 1.5 2.2 2.9 4.2 5.8 6.4 8.7.4.5 1.3.9 2 .9 2.2-.1 4.1-1.2 5.8-2.6 2.1-1.7 4.3-3.3 6.5-4.8 2.9-2 5.9-3.9 8.8-6 .6-.4.9-1.1 1.3-1.7zm3 .4c.1 1.6-.7 2.2-1.6 2.7-2 1.1-4 2.1-5.9 3.4-3.7 2.7-7.3 5.6-11.1 8.2-2.4 1.6-4.9 2.9-7.5 4.3-.2.1-.7 0-1-.2-.3-.1-.5-.5-.6-.8-2.9-5.1-7.2-9.2-10.5-14-.8-1.2-.6-2.9.6-3.7.3-.2.6-.4.8-.6 3.8-3.3 8.2-5.7 12.4-8.3 3.5-2.1 6.9-4.4 10.5-6.5 1.7-1 3.6-1.8 5.4-2.6 1.2-.6 1.8.3 2.1 1.2 1.2 2.9 2.4 5.7 3.5 8.6.9 2.2 1.7 4.4 2.4 6.6.3.8.4 1.4.5 1.7z"/><path d="m341.8 213.5s.1 1.6 0 2.3c0 1.1.5 1.7 1.6 1.9 5.5.9 11 1.8 16.5 2.8 2.2.4 3.6-.3 4.2-2.4.5-2 .6-4 1-6 .3-1.3-.2-1.7-1.4-1.9-3.5-.4-7-.9-10.5-1.3-2.3-.3-4.6-.4-7-.6-.9-.1-1.9-.1-2.8 0-.9 0-1.4.4-1.4 1.4 0 1.3-.2 2.6-.2 3.8zm-2.2-.7c0-1.6 0-3.1 0-4.7 0-1.1.5-1.7 1.6-1.9 3.5-.8 6.9 0 10.4.3 2.1.2 4.3.3 6.4.6 2.8.4 5.6.8 8.3 1.4 1.8.4 1.9.8 1.5 2.6-.1.3-.2.6-.3 1-.4 1.9-.8 3.8-1.2 5.6-.2.9-.3 1.8-.5 2.6-.7 2.7-.7 2.6-3.4 2.3-4.5-.5-9-.9-13.5-1.4-2.4-.3-4.7-.6-7.1-1-1-.2-2.1-1.4-2.1-2.5 0-1.6 0-4.9-.1-4.9z"/><path d="m218.7 258.5c1-.2 1.5.3 1.3 1.3-.1.8-.3 1.6-.5 2.4v.6c.1-.1.3-.2.4-.3 2.1-2.2 2.1-2.2 4.4-.2.1.1.2.2.2.2.2.1.5.3.7.4 0-.3.2-.7 0-.9-.4-.9-.9-1.7-1.3-2.5s-.4-1.4.3-2c1-.8 1.8-1.8 2.7-2.7.2-.2.2-.6.3-.8-.3 0-.5 0-.8.1-.7.2-1.4.4-2 .7-.8.4-1.1.3-1.2-.7-.1-.8-.5-1.5-.8-2.2-.5.7-2.8 4.1-4 4.6-.9.4-1.7.8-2.5 1.3-.5.3-.5.7.1.7 1 .1 1.9 0 2.7 0zm12.4-5.1c-1 1.3-1.8 2.6-2.9 3.7-.8.8-1 1.4-.7 2.4.4 1.8.7 3.7.9 5.6.2 1.3-.6 2-1.8 1.5-1-.4-1.9-1-2.8-1.7-1.5-1.1-1.7-1.1-2.9.4-.7.9-1.5 1.8-2.2 2.7-.6.7-1.4.8-2.1.2-.7-.5-1-1.4-.5-2.2.4-.6.9-1.2 1.2-1.8 1-2 .2-3.3-2-3.4-.9 0-1.9-.1-2.8-.4-1.4-.4-1.6-1.8-.4-2.6.9-.7 2-1.2 3.1-1.7 3.1-1.2 4.7-3.7 5.6-6.7.5-1.7 1-2.2 2.2-1.7.5.2.9.8 1.2 1.2.2.2.1.6.1 1 .3 2.6.3 2.6 2.7 1.9.7-.2 1.5-.3 2.3-.4 1 .1 1.6.8 1.8 2z"/><path d="m196.5 243.6c1.9-.2 2 0 1.8 1.8v1.3c0 .3.1.6.2.9.2-.2.5-.4.7-.6 1.4-1.7 1.4-1.7 3.4-.8.2.1.7.1.8 0 .2-.2.2-.6.1-.9-.2-.6-.6-1.1-.8-1.6-.9-2-.7-2.2 1.3-2.9.3-.1.5-.1.8-.3.2-.1.4-.3.6-.4-.2-.2-.4-.7-.6-.7-.7 0-1.5 0-2.2.1-.6.1-1.1.5-1.6-.3-.2-.5-.8-.8-1.2-1.1-.2.5-.5 1-.7 1.6-.1.4-.2 2.3-1 2.5s-2.8 1.2-3 1.5c.3.1.5.1.8.1.3-.1.5-.2.6-.2zm-2.8 2c-.2 0-.5 0-.8.1-1.3.5-1.8-.4-2.2-1.4-.4-1.2.6-1.4 1.3-1.8 1.5-.9 3-1.8 4.4-2.8 1.7-1.2 2.6-6.3 3-6.9.6-.9 1.3-.8 1.8.1.3.7.6 1.4.8 2.2.5 1.4 1.4 2.1 2.9 2 1.3-.1 2.5-.4 3.8-.5.9-.1 1.7 0 2.1 1s-.1 1.6-.8 2.1c-1.3.9-2.6 1.9-4 2.8-.8.5-.9 1.1-.6 2.1.6 1.6.9 3.4 1.2 5.1.1.7-.4.9-1 .6-.7-.3-1.5-.6-2.1-1-2.4-1.5-3.1-1.4-5.2 1.2-.3.4-.5.9-.9 1.2-.3.3-1 .5-1.3.3-.3-.1-.5-.8-.5-1.2 0-1 .2-2 .3-3 .1-1.7-.2-2.1-2.2-2.2z"/><path d="m172 268c0 1.3-.6 1.6-1.4 1.4-.7-.2-1.4-.7-2.1-1.2-1.2-.8-2.4-1.5-3.6-2.3-.5-.3-1.1-.5-1.3-.9-.3-.5-.4-1.4-.1-1.8s1.2-.7 1.6-.6c2.6.9 4.9 2.3 6.6 4.5.2.4.3.8.3.9z"/><path d="m147.7 253.9c1.2.5 2.4.9 3.6 1.5 1 .5 2 1.1 2.9 1.7.3.2.7.7.7 1.1 0 .5-.2 1.2-.6 1.6-.3.3-1.1.3-1.4.1-1.9-.9-3.7-1.9-5.5-3-.5-.3-1-.9-1.2-1.4-.1-.3.5-.9.9-1.3.2-.2.5-.2.6-.3z"/><path d="m270.1 253.9c.3-.6.6-1.1.9-1.5 1-1.4 2-2.9 3.1-4.2.6-.7 1.3-1.4 2.1-1.8.4-.2 1.6 1.1 1.5 1.6-.1.3-.3.5-.4.7-1.6 2-3.1 4-4.7 5.9-.3.4-1 .8-1.4.7-.4-.2-.7-.9-1.1-1.4z"/><path d="m311.6 221.2c-2 .1-3.5 1.3-5.1 2.3-.2.1-.5.4-.7.4-.5 0-1.2.2-1.4-.1-.3-.3-.4-1.2-.1-1.4.8-1 1.7-2.1 2.8-2.6 1.3-.7 2.8-.9 4.3-1.2 1.1-.4.8 2.5.2 2.6z"/><path d="m133.5 249.8c2 .6 4.1 1.1 6.1 1.7.4.1 1 .1.9 1.2s-.9.7-1.4.9c-.2.1-.5 0-.8 0-1.7-.2-3.4-.4-5.1-.7-1.7-.2-2.2-.6-2-1.7 0-1 .4-1.2 2.3-1.4z"/><path d="m184.1 282.1c-.1.3-.2.9-.5 1.3-.6.9-1.8.7-2-.3-.5-2-1.4-3.8-2.6-5.5-.5-.7-.3-1.5.3-1.9.4-.2 1.4-.2 1.6.1 1.2 1.7 2.2 3.6 3.2 5.4z"/><path d="m293.6 233c-.2.2-.5.7-.9.9-1.9.7-3.1 2.2-4.1 3.9-.4.6-.6 1.4-1.6.9-.9-.4-1-1.2-.5-2.2 1.2-2.1 2.6-4.1 5.1-4.9 1.1-.5 1.9 0 2 1.4z"/><path d="m327.7 214.6c-1.3.5-2.6.9-3.9 1.3-.7.2-1.5.5-2.2.6-.4.1-1.2 0-1.3-.2-.2-.4-.1-1.1.1-1.5.1-.4.6-.8 1-.9 2.2-.5 4.4-1 6.6-1.5.2 0 .2 2-.3 2.2z"/><path d="m545.6 360.4c-.9 0-1.8.1-2.7 0-.6-.1-1.2-.3-1.7-.7-.7-.6-.5-1.3.4-1.5.9-.1 1.9-.1 2.8-.1 1.1 0 2.1-.1 2.2-1.6 1-2.1 1.5-1.2 1.8.1.5 1.3 1 3.6-2.8 3.8z"/><path d="m545.4 340.7c1.2-.7 1.9.7 1.8 1.5-.1.5-.8 1.3-1.3 1.4-.8.1-1.6-.4-1.4-1.4.1-.6-.3-.8.9-1.5z"/><path d="m530.7 334.6c0 1.4-1.4 1.3-1.9 1.4-.9.1-1.5-.6-1.3-1.4.1-.6.7-1.4 1.2-1.4 1-.2 2 0 2 1.4z"/><path d="m624.8 353.8c-.2 1.5.4 2 2.7 2.8 1.6.6 3.2.9 4.7 1.5.6.2 1.3.6 1.5 1 .2.5.2 1.3-.1 1.8-.4.7-1 .3-1.7.1-1.8-.7-3.7-1.2-5.5-1.8-1.3-.4-2.5-1-3.7-1.5-1.1-.4-1.2-1.2-.8-2.2.3-.9.7-1.7.9-2.6.2-.8.6-1.3 1.4-1 .6.2.8.4.6 1.9z"/><path d="m631.3 344.7c-.2 1.4-1.1 1.3-1.7 1.3-1 .1-1.3-.9-1.3-1.7 0-.9.6-1.6 1.4-1.5.6.2 1.8.4 1.6 1.9z"/><path d="m644 343.7s-.2 1.5-1.6 1.5-1.6-2.3 0-2.8c1.6-.3 1.6 1.3 1.6 1.3z"/><path d="m191.7 339c-.1 0-.2 0-.4 0-.2.4-.5.7-.4 1.1s.5.6.7 1c.2-.3.6-.6.5-.8 0-.5-.2-.9-.4-1.3zm3 1.2c0 1.6-.8 2.7-2 3.6-2.1 1.6-3.8-.6-4.2-2.7-.4-2.2 1-4.1 3.1-4.8.8-.3 1.5 0 1.8.7.6 1 .9 2.1 1.3 3.2z"/><path d="m203.8 318.4c-.2-.2-1-.6-.9-.9.1-.7.5-1.7 1-1.9 1.6-.7 3.3-1.2 5-1.6.5-.1 1.5.4 1.7.9.2.4-.3 1.5-.8 1.7-1.7.7-3.4 1.1-5.2 1.7-.2.1-.4.1-.8.1z"/><path d="m178.8 323.1c0-1.2.7-1.6 1.7-1.7s1.8.7 1.8 1.5c0 1.1-.8 1.8-2 1.8-1.3.2-1.3-.8-1.5-1.6z"/><path d="m394.5 363.2c0-.1 0-.3.1-.5.6-1.5 1.3-3 1.9-4.5.3-.6.7-1.3 1.5-.8.6.4 1.4.8.9 1.8-1.8 3.5-.6 3.6 2.9 5.2 1.1.5 2.2.8 3.2 1.2.9.4 1.2 1.2 1 2.1-.2.8-.7 1.3-1.6.9-.5-.2-1-.5-1.5-.7-2.2-.8-4.5-1.6-6.7-2.4-1-.5-1.7-1.3-1.7-2.3z"/><path d="m402.7 343.7c.6.3 1.6.3 1.5 1.5-.1 1.3-1 2.3-2 2.2-.8 0-1.7-1-1.7-1.9.1-1.1 1-1.9 2.2-1.8z"/><path d="m417.1 344.7c.1-.9.1-2 1.4-2.1.9 0 1.8 1 1.8 1.8 0 1.1-.9 2.1-1.8 2.1-1.2 0-1.5-.8-1.4-1.8z"/><path d="m753.7 321.6c.1 1.2-.9 1.4-1.3 1.6-.7.2-1.7-.9-1.5-1.8.1-.5.1-.9 1-1.2.8-.2 1.7.2 1.8 1.4z"/><path d="m735.8 322.9c-.1 1-1.2 1.2-1.7 1.3-.4 0-.7-.2-1.1-1.1-.3-.9.7-1.9 1.4-1.8s1.5.6 1.4 1.6z"/><path d="m111 257.6c-.6-1.4-1.2-2.6-1.7-3.9-.4-1.1-.9-1.2-1.8-.8-3.6 1.8-7.3 3.4-10.9 5.3-1.7.9-3.2 2-4.7 3.1-.6.4-1.1.9-.6 1.7 1.2 1.7 2.4 3.4 3.7 5.1.5.7 1.2.8 2 .1 3.2-3.2 7.2-5.3 11-7.7.8-.5 1.6-1 2.3-1.7.3-.3.4-.7.7-1.2zm3.4 1c-.3.3-.6.8-1.1 1-2.9 1.9-5.9 3.7-8.8 5.6-2.4 1.6-4.8 3.4-7.1 5.2-1.8 1.4-2.7 1.4-4.1-.3-1.9-2.2-3.7-4.5-5.6-6.7-.6-.7-.7-1.3.1-1.9 2.5-1.9 4.9-3.9 7.6-5.7 1.8-1.2 3.9-1.9 5.8-2.9 2.4-1.2 4.8-2.5 7.2-3.8.8-.4 1.5-.4 1.9.5 1.3 2.7 2.6 5.4 3.8 8.1.1.3.2.5.3.9z"/><path d="m345.6 211.3c-.3 0-.3 2.9 0 3 .9.3 11.5 1.8 13.4 1.8.5 0 1.6-2.7 1.2-2.8-3.1-.5-13.6-2-14.6-2zm-2.2 1.9c0-.2 0-.2 0-.3 0-3.2-.5-3.6 3.7-3.2 2.7.3 5.5.2 8.2.5 2.5.3 4.9.9 7.3 1.4.8.1 1.1.5.9 1.3-.4 1.7-.7 3.5-1.2 5.1-.1.4-.9.9-1.3.8-2.8-.4-5.6-.8-8.4-1.3-2.5-.4-4.9-.8-7.4-1.2-2-.3-2-.3-1.9-2.4.1-.2.1-.5.1-.7z"/><path d="m257.7 351.2c-2.3 1.4-12.9 5.2-15.7 6.4-2.7 1.1-5.4 2.4-8 3.6-1.3.6-1.6.6-1.8-.9-.3-3.1-.6-6.2-.8-9.3-.2-2.4-.4-38.8-.7-43.3-.1-1.5-.3-3-.6-4.4-.2-1.2.1-2.1 1.1-2.7.6-.4 1.3-.9 2-1.2 3.2-1.6 6.4-3.1 9.5-4.7 2.6-1.3 5-2.8 7.6-4.1 7-3.8 13.7-8.2 21.1-11.3 3-1.3 5.9-2.6 8.8-3.9 1.2-.5 1.4-.5 1.4 1 0 3.4-.1 10.3-.2 10.3v9.5c0 .9.1 1.8.2 2.6.1 3.7.3 7.3.3 11 .1 6.2.2 12.4.3 18.6 0 3 0 6 .1 8.9 0 1.3-.6 2-1.7 2.6-3.8 1.8-7.6 3.7-11.4 5.6-3.9 1.8-7.9 3.4-11.5 5.7zm-28.2 7.2c.1 1.5 0 3 0 4.5 0 .7-.3 1.3-1.2 1.1-1.5-.4-3.1-.6-4.6-1.1-.4-.1-.8-.8-.8-1.2-.5-4-.9-8-1.3-12-.4-3.4 0-6.6 2.1-9.7.3-.5.5-.7 1.3-1.9.8-1.3 1.4-4.8-.4-4.9s-1.5 2.8-2.2 4.3c-.2.5-.7.8-1 1.2-.1-.5-.4-1-.4-1.5.1-3.3.3-6.5.3-9.8 0-5-.3-10-.4-14.9 0-2.2.2-4.4.3-6.6 0-1.3 0-2.6 0-3.8 0-.7.2-1.3 1.1-1 1.6.4 3.4.1 4.5 1.6.3.4.8.8.8 1.3zm-10.8-57.2c.2 4-.4 8.1-.5 12.1 0 5 .2 10 .2 15 0 2.3-.2 6.9-.3 9.2-.1 2-12.6-2.6-12.9-2.9-1-.8-2.1-1.6-3.1-2.5-.8-.7-1.5-.8-2.2 0s-.5 1.7.3 2.3c1.3 1 2.5 2.1 3.9 2.7 3.5 1.6 14.1 4.4 14.1 4.4s-1.6 4.4-1.2 4.1c.5-.3-3.8 2.2-5.7 3.3-2.3 1.3-4.5 2.7-6.9 4-2.7 1.4-5.6 2.7-8.3 4.1-1.8.9-3.6 1.9-5.4 2.9-2.4 1.3-4.8 2.7-7.2 4.1-.7.4-1.6.5-2.3.9-2.6 1.3-5.4 2.4-7.9 4-2.1 1.3-3.6.4-5.1-.8-2.4-1.9-4.8-3.9-7-6.1-2-2-3.9-4.1-5-6.7-.2-.5-.2-1.3 0-1.9 2.7-8.3 5.5-16.5 8.1-24.8 1-3 1.5-6.2 2.2-9.4.4-1.9 1.4-3.2 3.3-4 2.7-1.1 5.3-2.6 8-3.8 2.6-1.1 5.3-2 7.9-3 4.5-1.7 9-3.5 13.5-5.2 2.6-1 5.3-1.7 7.9-2.5.8-.3 1.5-.7 2.3-1 1.3-.6 2.5-1.1 3.8-1.7 1.8-.7 3.6-1.4 5.4-2.1 2.2-.8 4.3-1.7 6.5-2.5.4-.1.8 0 1.2 0-.2.3-.4.8-.8 1-1.1.7-2.3 1.4-3.5 1.9-1.8 1.1-3.4 2.1-3.3 4.9zm-51.4 70.3c-2.6 1.1-5.1 2.3-7.7 3.3-4.3 1.7-8.7 3.2-13.1 4.8-.3.1-.6.1-.9.1 0-.3 0-.7.1-.9.9-1.8 1.8-3.6 2.7-5.5.8-1.7 1.6-3.4 2.3-5.1l3.6-8.7c.3-.8.7-.7 1.2-.1 3.3 3.9 6.9 7.3 10.9 10.4.5.4.8.9 1.3 1.3-.2.1-.2.3-.4.4zm-23.8 5.9c-.2.4-.9.5-1.1.6-3-.4-6.4-3.1-5.1-6.4 2.1-5 3.9-10.1 5.9-15.1 2.2-5.5 4.4-11 6.6-16.5 2.2-5.4 4.4-10.9 6.9-16.2 1.9-3.9 4.3-7.6 6.3-11.5.6-1.1 1.2-1 1.9-.2.9.9 1.2 2 .7 3.2s-1.2 2.4-1.5 3.7c-1.7 6.4-2.9 12.8-5.3 19-1 2.5-1.9 5-2.8 7.5-.5 1.6-.8 3.2-1.2 4.8-.1.4-.4.8-.6 1.1-.3-.3-.6-.6-.8-.9-.3-.5-.7-1-.9-1.6-.3-.9-.9-1.4-1.8-1s-1 1.3-.6 2.1c.5 1 .9 2.2 1.6 3.1 1.9 2.3 1.2 4.6.1 6.9-1.8 3.9-3.5 7.9-5.3 11.8-1 1.9-1.9 3.8-3 5.6zm24-68.5c6.7-2.9 13.4-5.7 19.9-8.8 6.1-2.9 12.5-5.1 18.7-7.7 4.1-1.7 8.4-2.9 12.5-4.5 1-.4 2-.8 2.8-1.5.9-.7 1.7-.4 2.5-.1 1.4.5 2.8 1.1 4.1 1.6.4.2.8.4 1.2.6.2.1.3.3.5.4-.2.1-.3.3-.5.4-1.6.9-3.2 1.9-4.9 2.6-1.8.8-3.7 1.4-5.6 2-5.4 1.9-10.9 3.6-16.3 5.6s-10.7 4.1-16 6.2c-5.3 2-10.5 4-15.8 6-.3.1-.6.2-1.1.3-.7-.3-1.6-.6-2.3-1.1-1.3-.7-1.2-1.4.3-2zm61.5-10.6c-1.5 0-3.1 0-4.6 0-.2 0-.5-.2-.7-.3.2-.1.3-.3.5-.4 2.1-1.3 4.2-2.5 6.2-3.8.5-.3 1-.5 1.4-.8 10.3-7.1 21.4-12.8 32.9-17.7 2.8-1.2 5.5-2.5 8.3-3.7 2.3-.9 4.8-.8 7.1.1l.6.3c-.2.1-.4.2-.6.3-3.8 1.8-7.5 3.5-11.3 5.3-3.5 1.7-7 3.6-10.4 5.5-3.4 1.8-6.8 3.7-10.1 5.7-2.4 1.4-4.7 2.9-7.1 4.2-2.7 1.4-5.5 2.5-8.3 3.8m59.4 66.5c-.7-1.3-1.3-2.6-2-3.8-.2-.4-.5-.9-.8-1.2-.6-.7-1.2-.9-1.9-.1-.7.7-11.3 5.8-15.6 7.9-2.2 1.1-2.7.9-2.9-1.6 0-.1 0-.1 0-.2-.5-4.7-.9-9.4-1.5-14-.2-1.3.4-1.8 1.4-2.2 1.2-.5 2.5-1 3.7-1.5 3.3-1.5 6.5-3.1 9.8-4.5 2-.8 2.7-1.8 2.4-4-.1-.4 0-.9 0-1.3 0-3.6-.1-7.2-.1-10.8-.1-5.6-.5-49.7-.4-53h.1c0-.6-.1-1.1-.1-1.7 0-.8-.3-1.2-1.1-1.4-2.5-.7-5.1-1.6-7.6-2.3-.5-.1-1.1 0-1.6.2-2.1 1.1-4.2 2.2-6.3 3.3-3 1.5-6 3.1-9.1 4.5-4 1.9-8.2 3.6-12.1 5.7-3.9 2-7.7 4.4-11.5 6.6-.3.2-.9.2-.9.2-.9-1.9-2.8-2-4.5-2.4-1.6-.4-3.4-.6-4.8-1.4-1.5-.9-2.7-.7-4 0-4.2 2-8.4 3.9-12.8 5.4-5.5 1.9-10.9 4.2-16.3 6.4-4.2 1.7-8.4 3.6-12.6 5.3-4.7 2-9.5 3.7-14.1 5.8-2.2 1-4 2.8-4.7 5.4-.2.7-.5 1.3-.8 2-2 3.7-4.2 7.2-5.9 11-2.9 6.5-5.5 13.1-8.2 19.6-1.1 2.5-2.2 5.1-3.2 7.6-1.9 4.6-3.7 9.3-5.5 13.9-1 2.4-1.9 4.8-2.7 7.3-.4 1.2.1 2 1 2.7 2.1 1.6 4 3.5 6.2 5 1.1.7 2.7 1.5 3.8 1.2 3.1-.7 6.1-1.8 9.1-3 2.6-1 5.1-2.2 7.6-3.3l.9-.3c-.2.3-.3.6-.5.8-2.4 3.1-5 6.2-7.3 9.4-1.2 1.6-2.3 3.1-4 4.1-1.2.7-1.2 1.7-.6 2.7 1.7 2.7 3.3 5.5 4.9 8.3 1 1.8 1.8 3.8 2.6 5.7.4 1 1.2 1.1 2 .9.2 0 .3-1.2.1-1.7-.8-2.2-1.7-4.3-2.7-6.4s-2.1-4.1-3.3-6.2c-.7-1.2-.5-2.1.4-3.2 2.1-2.5 4-5.2 6-7.7 2.2-2.8 4.3-5.6 6.6-8.4 1.2-1.5 3.5-2 5.2-1.2 1.8.8 3.5 1.6 5.3 2.4.7.4 1.5.7 2.1 1.3.7.6 1.5.6 2.1.1.4-.3.8-1.1.7-1.5-.2-.6-.8-1.1-1.4-1.4-1.9-.9-3.8-1.7-5.7-2.5-1-.4-.6-.9 0-1.2 2.9-1.4 5.9-2.9 8.8-4.2.3-.1.9 0 1 .2 1.3 2.6 2.7 5.1 3.6 7.9 1.6 5.1 3.7 10 6.2 14.7.7 1.3 1.4 2.7 1.9 4.1.5 1.7 1 2.2 2.8 2.4 3.2.2 6.4.4 9.6.7 1.2.1 1.9-.4 1.9-1.4.1-1.3-.9-1.3-1.7-1.3-1.4-.1-2.8 0-4.1-.1-3.1-.3-6.5-.5-7.5-4.4 0-.1-.1-.2-.2-.3-1.4-3-3.4-5.5-4.4-8.7-1.6-4.7-3.6-9.3-5.4-13.9-.4-1-.3-1.6.6-2.1 2.5-1.3 4.9-2.5 7.4-3.8 4.1-2.1 8.3-4.2 12.4-6.4 2.5-1.3 4.9-2.6 7.3-3.9.2-.1.5-.1.8-.1 0 .2 0 .5-.1.7-.7 2-1.4 4.1-2.3 6.1-1.4 3-2.8 5.9-4.4 8.8-.8 1.5-1.9 2.7-2.7 4.2-.3.6-.3 1.5-.1 2.2.1.3.9.5 1.4.5 1 .1 1.1-.7 1.4-1.4.6-1.3 1.2-2.6 1.8-3.9 1.7-3.5 3.4-7 5-10.5.9-2 1.6-4 2.4-6 .1-.3.4-.5.6-.7.1.3.3.5.3.8.5 4.3 1 8.6 1.4 12.9.2 1.7.3 1.9 1.9 2.1 2.7.4 5.3.9 8 1.3.5.1 4.5-3.4 6.3-4.5.1-.1.2-.1.3-.2 3-1.9 6.4-3.2 9.7-4.7 1.1-.5 1.8-.1 1.8 1.2-.1 1.7-.2 3.4-.4 5.1-.6 4.9-1.3 9.9-1.9 14.8-.5 4.3-.5 4.3-4.7 3.4-.8-.2-1.7-.4-2.4-.2-.5.2-.9 1-1.1 1.6-.1.2.8.8 1.2.9 2.5.4 5 .5 7.4.9 1.3.2 1.7-.2 1.8-1.6.3-4.6.8-9.3 1.3-13.9.4-3.5.8-7 1.2-10.6.1-.9 0-2.1.5-2.7.4-.6 1.6-.5 2.4-.8.2 0 .3-.1.5-.2 3.6-1.3 7.2-2.8 10.3-5.2.6-.5.8-.1.8.4.1.8 0 1.5.1 2.3.4 3.3.8 6.6 1.2 9.9.3 2.3.4 4.5.7 6.8.1.7 1.3.9 3 .8s13.7-8 15.8-8.9c1.7-.7 2.2-.6 3 1.1.3.5.5 1.1.8 1.7.4 1.1 1.5 1.7 2.3 1.3.1-.3.2-1.4-.4-2.5z"/></g></svg>